<?xml version="1.0" encoding="UTF-8" standalone="no"?>
<svg
   xmlns:dc="http://purl.org/dc/elements/1.1/"
   xmlns:cc="http://creativecommons.org/ns#"
   xmlns:rdf="http://www.w3.org/1999/02/22-rdf-syntax-ns#"
   xmlns:svg="http://www.w3.org/2000/svg"
   xmlns="http://www.w3.org/2000/svg"
   xmlns:sodipodi="http://sodipodi.sourceforge.net/DTD/sodipodi-0.dtd"
   xmlns:inkscape="http://www.inkscape.org/namespaces/inkscape"
   width="960px"
   height="540px"
   viewBox="0 0 960 540"
   version="1.1"
   id="SVGRoot"
   sodipodi:docname="404.svg"
   inkscape:version="1.0.2-2 (e86c870879, 2021-01-15)">
  <defs
     id="defs11270">
    <filter
       inkscape:collect="always"
       style="color-interpolation-filters:sRGB"
       id="filter11242"
       x="-0.61873674"
       width="2.2374735"
       y="-0.71666229"
       height="2.4333246">
      <feGaussianBlur
         inkscape:collect="always"
         stdDeviation="26.927894"
         id="feGaussianBlur11244" />
    </filter>
    <filter
       inkscape:collect="always"
       style="color-interpolation-filters:sRGB"
       id="filter11238"
       x="-0.31255105"
       width="1.625102"
       y="-0.66783136"
       height="2.3356628">
      <feGaussianBlur
         inkscape:collect="always"
         stdDeviation="26.927894"
         id="feGaussianBlur11240" />
    </filter>
    <filter
       inkscape:collect="always"
       style="color-interpolation-filters:sRGB"
       id="filter11234"
       x="-1.0948316"
       width="3.1896632"
       y="-0.37199634"
       height="1.7439927">
      <feGaussianBlur
         inkscape:collect="always"
         stdDeviation="26.927894"
         id="feGaussianBlur11236" />
    </filter>
    <filter
       inkscape:collect="always"
       style="color-interpolation-filters:sRGB"
       id="filter11230"
       x="-0.88029498"
       width="2.7605901"
       y="-3.4169416"
       height="7.8338833">
      <feGaussianBlur
         inkscape:collect="always"
         stdDeviation="26.927894"
         id="feGaussianBlur11232" />
    </filter>
    <filter
       inkscape:collect="always"
       style="color-interpolation-filters:sRGB"
       id="filter11226"
       x="-1.0290084"
       width="3.0580168"
       y="-0.87004101"
       height="2.740082">
      <feGaussianBlur
         inkscape:collect="always"
         stdDeviation="26.927894"
         id="feGaussianBlur11228" />
    </filter>
    <filter
       inkscape:collect="always"
       style="color-interpolation-filters:sRGB"
       id="filter11222"
       x="-1.0657521"
       width="3.1315043"
       y="-0.70730478"
       height="2.4146094">
      <feGaussianBlur
         inkscape:collect="always"
         stdDeviation="26.927894"
         id="feGaussianBlur11224" />
    </filter>
    <filter
       inkscape:collect="always"
       style="color-interpolation-filters:sRGB"
       id="filter11218"
       x="-1.2865846"
       width="3.5731692"
       y="-0.70957083"
       height="2.4191418">
      <feGaussianBlur
         inkscape:collect="always"
         stdDeviation="26.927894"
         id="feGaussianBlur11220" />
    </filter>
    <filter
       inkscape:collect="always"
       style="color-interpolation-filters:sRGB"
       id="filter11214"
       x="-0.93274641"
       width="2.8654928"
       y="-0.51350534"
       height="2.0270107">
      <feGaussianBlur
         inkscape:collect="always"
         stdDeviation="26.927894"
         id="feGaussianBlur11216" />
    </filter>
    <filter
       inkscape:collect="always"
       style="color-interpolation-filters:sRGB"
       id="filter11825"
       x="-0.10789725"
       width="1.2157945"
       y="-0.042149023"
       height="1.084298">
      <feGaussianBlur
         inkscape:collect="always"
         stdDeviation="5.9773937"
         id="feGaussianBlur11827" />
    </filter>
    <filter
       inkscape:collect="always"
       style="color-interpolation-filters:sRGB"
       id="filter11861"
       x="-0.12290028"
       width="1.2458006"
       y="-0.056554253"
       height="1.1131085">
      <feGaussianBlur
         inkscape:collect="always"
         stdDeviation="7.4730097"
         id="feGaussianBlur11863" />
    </filter>
    <filter
       inkscape:collect="always"
       style="color-interpolation-filters:sRGB"
       id="filter11933"
       x="-0.12747787"
       width="1.2549557"
       y="-0.049797993"
       height="1.099596">
      <feGaussianBlur
         inkscape:collect="always"
         stdDeviation="7.0621377"
         id="feGaussianBlur11935" />
    </filter>
    <filter
       inkscape:collect="always"
       style="color-interpolation-filters:sRGB"
       id="filter12433"
       x="-0.11473903"
       width="1.2294781"
       y="-0.063167314"
       height="1.1263346">
      <feGaussianBlur
         inkscape:collect="always"
         stdDeviation="3.3124547"
         id="feGaussianBlur12435" />
    </filter>
    <filter
       inkscape:collect="always"
       style="color-interpolation-filters:sRGB"
       id="filter12437"
       x="-0.15826538"
       width="1.3165308"
       y="-0.087285707"
       height="1.1745714">
      <feGaussianBlur
         inkscape:collect="always"
         stdDeviation="3.3124547"
         id="feGaussianBlur12439" />
    </filter>
    <filter
       inkscape:collect="always"
       style="color-interpolation-filters:sRGB"
       id="filter12441"
       x="-0.13110033"
       width="1.2622007"
       y="-0.087006978"
       height="1.174014">
      <feGaussianBlur
         inkscape:collect="always"
         stdDeviation="3.3124547"
         id="feGaussianBlur12443" />
    </filter>
    <filter
       inkscape:collect="always"
       style="color-interpolation-filters:sRGB"
       id="filter12445"
       x="-0.12658043"
       width="1.2531609"
       y="-0.10702545"
       height="1.2140509">
      <feGaussianBlur
         inkscape:collect="always"
         stdDeviation="3.3124547"
         id="feGaussianBlur12447" />
    </filter>
    <filter
       inkscape:collect="always"
       style="color-interpolation-filters:sRGB"
       id="filter12449"
       x="-0.10828672"
       width="1.2165734"
       y="-0.4203249"
       height="1.8406498">
      <feGaussianBlur
         inkscape:collect="always"
         stdDeviation="3.3124547"
         id="feGaussianBlur12451" />
    </filter>
    <filter
       inkscape:collect="always"
       style="color-interpolation-filters:sRGB"
       id="filter12453"
       x="-0.038447535"
       width="1.0768951"
       y="-0.082151256"
       height="1.1643025">
      <feGaussianBlur
         inkscape:collect="always"
         stdDeviation="3.3124547"
         id="feGaussianBlur12455" />
    </filter>
    <filter
       inkscape:collect="always"
       style="color-interpolation-filters:sRGB"
       id="filter12457"
       x="-0.076112089"
       width="1.1522242"
       y="-0.088158039"
       height="1.1763161">
      <feGaussianBlur
         inkscape:collect="always"
         stdDeviation="3.3124547"
         id="feGaussianBlur12459" />
    </filter>
    <filter
       inkscape:collect="always"
       style="color-interpolation-filters:sRGB"
       id="filter12461"
       x="-0.11473903"
       width="1.2294781"
       y="-0.063167314"
       height="1.1263346">
      <feGaussianBlur
         inkscape:collect="always"
         stdDeviation="3.3124547"
         id="feGaussianBlur12463" />
    </filter>
    <filter
       inkscape:collect="always"
       style="color-interpolation-filters:sRGB"
       id="filter12465"
       x="-0.15826538"
       width="1.3165308"
       y="-0.087285707"
       height="1.1745714">
      <feGaussianBlur
         inkscape:collect="always"
         stdDeviation="3.3124547"
         id="feGaussianBlur12467" />
    </filter>
    <filter
       inkscape:collect="always"
       style="color-interpolation-filters:sRGB"
       id="filter12469"
       x="-0.13110033"
       width="1.2622007"
       y="-0.087006978"
       height="1.174014">
      <feGaussianBlur
         inkscape:collect="always"
         stdDeviation="3.3124547"
         id="feGaussianBlur12471" />
    </filter>
    <filter
       inkscape:collect="always"
       style="color-interpolation-filters:sRGB"
       id="filter12473"
       x="-0.12658043"
       width="1.2531609"
       y="-0.10702545"
       height="1.2140509">
      <feGaussianBlur
         inkscape:collect="always"
         stdDeviation="3.3124547"
         id="feGaussianBlur12475" />
    </filter>
    <filter
       inkscape:collect="always"
       style="color-interpolation-filters:sRGB"
       id="filter12477"
       x="-0.10828672"
       width="1.2165734"
       y="-0.4203249"
       height="1.8406498">
      <feGaussianBlur
         inkscape:collect="always"
         stdDeviation="3.3124547"
         id="feGaussianBlur12479" />
    </filter>
    <filter
       inkscape:collect="always"
       style="color-interpolation-filters:sRGB"
       id="filter12481"
       x="-0.13467761"
       width="1.2693552"
       y="-0.045760025"
       height="1.09152">
      <feGaussianBlur
         inkscape:collect="always"
         stdDeviation="3.3124547"
         id="feGaussianBlur12483" />
    </filter>
    <filter
       inkscape:collect="always"
       style="color-interpolation-filters:sRGB"
       id="filter12485"
       x="-0.038447535"
       width="1.0768951"
       y="-0.082151256"
       height="1.1643025">
      <feGaussianBlur
         inkscape:collect="always"
         stdDeviation="3.3124547"
         id="feGaussianBlur12487" />
    </filter>
    <filter
       inkscape:collect="always"
       style="color-interpolation-filters:sRGB"
       id="filter12489"
       x="-0.076112089"
       width="1.1522242"
       y="-0.088158039"
       height="1.1763161">
      <feGaussianBlur
         inkscape:collect="always"
         stdDeviation="3.3124547"
         id="feGaussianBlur12491" />
    </filter>
    <filter
       inkscape:collect="always"
       style="color-interpolation-filters:sRGB"
       id="filter12493"
       x="-0.075157625"
       width="1.1503153"
       y="-0.048334807"
       height="1.0966696">
      <feGaussianBlur
         inkscape:collect="always"
         stdDeviation="3.3124547"
         id="feGaussianBlur12495" />
    </filter>
    <filter
       inkscape:collect="always"
       style="color-interpolation-filters:sRGB"
       id="filter12673"
       x="-0.1958684"
       width="1.3917368"
       y="-4.8968164"
       height="10.793633">
      <feGaussianBlur
         inkscape:collect="always"
         stdDeviation="2.2524539"
         id="feGaussianBlur12675" />
    </filter>
    <filter
       inkscape:collect="always"
       style="color-interpolation-filters:sRGB"
       id="filter12737"
       x="-0.074030199"
       width="1.1480604"
       y="-0.28276939"
       height="1.5655388">
      <feGaussianBlur
         inkscape:collect="always"
         stdDeviation="3.6203711"
         id="feGaussianBlur12739" />
    </filter>
  </defs>
  <sodipodi:namedview
     id="base"
     pagecolor="#ffffff"
     bordercolor="#666666"
     borderopacity="1.0"
     inkscape:pageopacity="0.0"
     inkscape:pageshadow="2"
     inkscape:zoom="3.8653922"
     inkscape:cx="835.80968"
     inkscape:cy="466.66448"
     inkscape:document-units="px"
     inkscape:current-layer="layer1"
     inkscape:document-rotation="0"
     showgrid="false"
     inkscape:window-width="1920"
     inkscape:window-height="1001"
     inkscape:window-x="-9"
     inkscape:window-y="-9"
     inkscape:window-maximized="1" />
  <metadata
     id="metadata11273">
    <rdf:RDF>
      <cc:Work
         rdf:about="">
        <dc:format>image/svg+xml</dc:format>
        <dc:type
           rdf:resource="http://purl.org/dc/dcmitype/StillImage" />
        <dc:title></dc:title>
      </cc:Work>
    </rdf:RDF>
  </metadata>
  <g
     inkscape:label="Layer 1"
     inkscape:groupmode="layer"
     id="layer1">
    <path
       style="display:inline;fill:none;stroke:#333333;stroke-width:13.3355;stroke-linecap:butt;stroke-linejoin:miter;stroke-miterlimit:4;stroke-dasharray:none;stroke-opacity:1"
       d="m 323.05781,351.2702 c 0,0 62.451,-149.10164 30.4449,-144.4178 -32.0061,4.68378 -142.85665,-106.16667 -120.9987,32.00609 21.8578,138.17276 0,-227.945995 0,-227.945995"
       id="path23-9" />
    <path
       style="display:inline;fill:none;stroke:#333333;stroke-width:13.3355;stroke-linecap:butt;stroke-linejoin:miter;stroke-miterlimit:4;stroke-dasharray:none;stroke-opacity:1"
       d="m 463.61961,24.270455 c 0,0 -81.1864,29.66423 -41.3739,216.236455 39.8125,186.5722 100.7023,47.61887 100.7023,47.61887 0,0 92.8957,-322.403075 -27.3224,-259.171485 -120.2181,63.231586 -32.0061,-4.68384 -32.006,-4.68384 z"
       id="path25-6" />
    <path
       style="display:inline;fill:none;stroke:#333333;stroke-width:13.3355;stroke-linecap:butt;stroke-linejoin:miter;stroke-miterlimit:4;stroke-dasharray:none;stroke-opacity:1"
       d="m 618.59951,352.87505 c 0,0 -62.4509,-149.10165 -30.4448,-144.41781 32.0061,4.68378 142.8565,-106.16667 120.9987,32.00609 -21.8578,138.17276 0,-227.945985 0,-227.945985"
       id="path23-5-6" />
    <path
       style="display:inline;fill:none;stroke:#333333;stroke-width:5.33418;stroke-linecap:butt;stroke-linejoin:miter;stroke-miterlimit:4;stroke-dasharray:none;stroke-opacity:1"
       d="m 468.86421,251.36736 c 23.1838,-0.55198 27.5996,-1.10396 27.5996,-1.10396"
       id="path47-9" />
    <path
       style="display:inline;fill:none;stroke:#333333;stroke-width:5.33418;stroke-linecap:butt;stroke-linejoin:miter;stroke-miterlimit:4;stroke-dasharray:none;stroke-opacity:1"
       d="m 473.57351,73.263145 c 0,0 -68.1713,12.971866 -34.2237,25.115716 33.9476,12.143849 131.3745,0 102.6709,-12.14385 -25.1876,-10.656246 -51.6592,-13.586896 -59.541,-13.553556 -5.8776,0.0251 -8.9062,0.58169 -8.9062,0.58169 z"
       id="path49-1"
       sodipodi:nodetypes="csssc" />
    <path
       style="fill:none;stroke:#333333;stroke-width:3.73393;stroke-linecap:butt;stroke-linejoin:miter;stroke-miterlimit:4;stroke-dasharray:none;stroke-opacity:1"
       d="m 53.246115,491.07858 8.9773,-108.50851 c 0,0 58.938045,43.32535 41.373795,106.16661 -17.564395,62.84124 55.42515,-153.00483 55.42515,-153.00483"
       id="path389" />
    <path
       style="fill:none;stroke:#333333;stroke-width:3.73393;stroke-linecap:butt;stroke-linejoin:miter;stroke-miterlimit:4;stroke-dasharray:none;stroke-opacity:1"
       d="m 203.51866,422.38255 c -1.5613,-0.39032 -65.9638,41.37373 -62.8413,46.44783 3.1226,5.0742 70.6477,44.49634 77.67335,43.71574 7.0257,-0.7807 28.4933,-71.42828 26.5416,-72.59924 -1.9515,-1.17096 -41.37365,-17.56433 -41.37365,-17.56433 z"
       id="path391" />
    <path
       style="fill:none;stroke:#333333;stroke-width:3.73393;stroke-linecap:butt;stroke-linejoin:miter;stroke-miterlimit:4;stroke-dasharray:none;stroke-opacity:1"
       d="m 291.98281,508.65932 c 0,0 28.7036,-88.31899 12.1438,-89.42297 -16.5598,-1.10399 -127.34315,-11.82626 -56.6879,-5.20234 70.6552,6.62393 183.4405,14.00816 183.4405,14.00816"
       id="path395"
       sodipodi:nodetypes="cssc" />
    <path
       style="fill:none;stroke:#333333;stroke-width:3.73393;stroke-linecap:butt;stroke-linejoin:miter;stroke-miterlimit:4;stroke-dasharray:none;stroke-opacity:1"
       d="m 599.44311,372.31688 c 0,0 -73.9672,-32.01563 -56.3033,112.0547 16.1776,131.94964 0,0 0,0"
       id="path397"
       sodipodi:nodetypes="csc" />
    <path
       style="fill:none;stroke:#333333;stroke-width:3.73393;stroke-linecap:butt;stroke-linejoin:miter;stroke-miterlimit:4;stroke-dasharray:none;stroke-opacity:1"
       d="m 522.71601,436.34815 c 0,0 39.7435,23.18374 73.4152,18.21579"
       id="path399" />
    <path
       style="fill:none;stroke:#333333;stroke-width:3.73393;stroke-linecap:butt;stroke-linejoin:miter;stroke-miterlimit:4;stroke-dasharray:none;stroke-opacity:1"
       d="m 654.09061,444.07606 c 0,0 -54.6475,-4.96794 -33.1196,27.04762 21.5277,32.01574 3.3118,56.85544 42.5035,43.05554 39.1914,-13.7998 -9.3839,-70.10316 -9.3839,-70.10316 z"
       id="path401" />
    <path
       style="fill:none;stroke:#333333;stroke-width:3.73393;stroke-linecap:butt;stroke-linejoin:miter;stroke-miterlimit:4;stroke-dasharray:none;stroke-opacity:1"
       d="m 725.84971,434.14017 c 0,0 -45.8154,140.75835 -1.656,72.86315 44.1595,-67.8952 41.3996,-66.79122 41.3996,-66.79122 l -30.9116,74.51912"
       id="path403" />
    <path
       style="fill:none;stroke:#333333;stroke-width:3.73393;stroke-linecap:butt;stroke-linejoin:miter;stroke-miterlimit:4;stroke-dasharray:none;stroke-opacity:1"
       d="m 784.91311,509.21132 c 0,-6.0719 4.4158,-85.00703 4.4158,-85.00703 l 23.1838,78.93513 22.6318,-85.00706"
       id="path409" />
    <path
       style="fill:none;stroke:#333333;stroke-width:3.73393;stroke-linecap:butt;stroke-linejoin:miter;stroke-miterlimit:4;stroke-dasharray:none;stroke-opacity:1"
       d="m 926.22351,378.38881 -6.072,125.85451 c 0,0 -142.9663,-26.49574 1.104,-63.47922"
       id="path411" />
    <path
       style="display:inline;fill:none;stroke:#333333;stroke-width:13.3355;stroke-linecap:butt;stroke-linejoin:miter;stroke-miterlimit:4;stroke-dasharray:none;stroke-opacity:1;filter:url(#filter11825)"
       d="m 311.71598,362.24616 c 0,0 62.451,-149.10164 30.4449,-144.4178 -32.0061,4.68378 -142.85665,-106.16667 -120.9987,32.00609 21.8578,138.17276 0,-227.945991 0,-227.945991"
       id="path10626" />
    <path
       style="display:inline;fill:none;stroke:#333333;stroke-width:13.3355;stroke-linecap:butt;stroke-linejoin:miter;stroke-miterlimit:4;stroke-dasharray:none;stroke-opacity:1;filter:url(#filter11861)"
       d="m 452.27778,35.246419 c 0,0 -81.1864,29.66423 -41.3739,216.236451 39.8125,186.5722 100.7023,47.61887 100.7023,47.61887 0,0 92.8957,-322.403071 -27.3224,-259.171481 -120.2181,63.231591 -32.0061,-4.68384 -32.006,-4.68384 z"
       id="path10628" />
    <path
       style="display:inline;fill:none;stroke:#333333;stroke-width:13.3355;stroke-linecap:butt;stroke-linejoin:miter;stroke-miterlimit:4;stroke-dasharray:none;stroke-opacity:1;filter:url(#filter11933)"
       d="m 607.25768,363.85101 c 0,0 -62.4509,-149.10165 -30.4448,-144.41781 32.0061,4.68378 142.8565,-106.16667 120.9987,32.00609 -21.8578,138.17276 0,-227.945981 0,-227.945981"
       id="path10630" />
    <path
       style="display:inline;fill:none;stroke:#333333;stroke-width:5.33418;stroke-linecap:butt;stroke-linejoin:miter;stroke-miterlimit:4;stroke-dasharray:none;stroke-opacity:1;filter:url(#filter12673)"
       d="m 457.52238,262.34332 c 23.1838,-0.55198 27.5996,-1.10396 27.5996,-1.10396"
       id="path10632" />
    <path
       style="display:inline;fill:none;stroke:#333333;stroke-width:5.33418;stroke-linecap:butt;stroke-linejoin:miter;stroke-miterlimit:4;stroke-dasharray:none;stroke-opacity:1;filter:url(#filter12737)"
       d="m 462.23168,84.239109 c 0,0 -68.1713,12.971866 -34.2237,25.115721 33.9476,12.14384 131.3745,0 102.6709,-12.143855 -25.1876,-10.656246 -51.6592,-13.586896 -59.541,-13.553556 -5.8776,0.0251 -8.9062,0.58169 -8.9062,0.58169 z"
       id="path10634"
       sodipodi:nodetypes="csssc" />
    <path
       style="fill:none;stroke:#333333;stroke-width:3.73393;stroke-linecap:butt;stroke-linejoin:miter;stroke-miterlimit:4;stroke-dasharray:none;stroke-opacity:1;filter:url(#filter11242)"
       d="m 203.51866,422.38255 c -1.5613,-0.39032 -65.9638,41.37373 -62.8413,46.44783 3.1226,5.0742 70.6477,44.49634 77.67335,43.71574 7.0257,-0.7807 28.4933,-71.42828 26.5416,-72.59924 -1.9515,-1.17096 -41.37365,-17.56433 -41.37365,-17.56433 z"
       id="path10638" />
    <path
       style="fill:none;stroke:#333333;stroke-width:3.73393;stroke-linecap:butt;stroke-linejoin:miter;stroke-miterlimit:4;stroke-dasharray:none;stroke-opacity:1;filter:url(#filter11238)"
       d="m 291.98281,508.65932 c 0,0 28.7036,-88.31899 12.1438,-89.42297 -16.5598,-1.10399 -127.34315,-11.82626 -56.6879,-5.20234 70.6552,6.62393 183.4405,14.00816 183.4405,14.00816"
       id="path10640"
       sodipodi:nodetypes="cssc" />
    <path
       style="fill:none;stroke:#333333;stroke-width:3.73393;stroke-linecap:butt;stroke-linejoin:miter;stroke-miterlimit:4;stroke-dasharray:none;stroke-opacity:1;filter:url(#filter11234)"
       d="m 565.85431,244.7624 c 0,0 -73.9672,-32.01563 -56.3034,112.0547 16.1777,131.94966 0,0 0,0"
       id="path10642"
       sodipodi:nodetypes="csc" />
    <path
       style="fill:none;stroke:#333333;stroke-width:3.73393;stroke-linecap:butt;stroke-linejoin:miter;stroke-miterlimit:4;stroke-dasharray:none;stroke-opacity:1;filter:url(#filter11230)"
       d="m 522.71601,436.34815 c 0,0 39.7435,23.18374 73.4152,18.21579"
       id="path10644" />
    <path
       style="fill:none;stroke:#333333;stroke-width:3.73393;stroke-linecap:butt;stroke-linejoin:miter;stroke-miterlimit:4;stroke-dasharray:none;stroke-opacity:1;filter:url(#filter11226)"
       d="m 654.09061,444.07606 c 0,0 -54.6475,-4.96794 -33.1196,27.04762 21.5277,32.01574 3.3118,56.85544 42.5035,43.05554 39.1914,-13.7998 -9.3839,-70.10316 -9.3839,-70.10316 z"
       id="path10646" />
    <path
       style="fill:none;stroke:#333333;stroke-width:3.73393;stroke-linecap:butt;stroke-linejoin:miter;stroke-miterlimit:4;stroke-dasharray:none;stroke-opacity:1;filter:url(#filter11222)"
       d="m 725.84971,434.14017 c 0,0 -45.8154,140.75835 -1.656,72.86315 44.1595,-67.8952 41.3996,-66.79122 41.3996,-66.79122 l -30.9116,74.51912"
       id="path10648" />
    <path
       style="fill:none;stroke:#333333;stroke-width:3.73393;stroke-linecap:butt;stroke-linejoin:miter;stroke-miterlimit:4;stroke-dasharray:none;stroke-opacity:1;filter:url(#filter11218)"
       d="m 784.91311,509.21132 c 0,-6.0719 4.4158,-85.00703 4.4158,-85.00703 l 23.1838,78.93513 22.6318,-85.00706"
       id="path10650" />
    <path
       style="fill:none;stroke:#333333;stroke-width:3.73393;stroke-linecap:butt;stroke-linejoin:miter;stroke-miterlimit:4;stroke-dasharray:none;stroke-opacity:1;filter:url(#filter11214)"
       d="m 926.22351,378.38881 -6.072,125.85451 c 0,0 -142.9663,-26.49574 1.104,-63.47922"
       id="path10652" />
    <path
       style="fill:none;stroke:#333333;stroke-width:3.73393;stroke-linecap:butt;stroke-linejoin:miter;stroke-miterlimit:4;stroke-dasharray:none;stroke-opacity:1;filter:url(#filter12493)"
       d="m 45.22623,497.02882 8.9773,-108.50851 c 0,0 58.93805,43.32535 41.373795,106.16661 C 78.01293,557.52816 151.00248,341.68209 151.00248,341.68209"
       id="path11953" />
    <path
       style="fill:none;stroke:#333333;stroke-width:3.73393;stroke-linecap:butt;stroke-linejoin:miter;stroke-miterlimit:4;stroke-dasharray:none;stroke-opacity:1;filter:url(#filter12489)"
       d="m 203.51866,422.38255 c -1.5613,-0.39032 -65.9638,41.37373 -62.8413,46.44783 3.1226,5.0742 70.6477,44.49634 77.67335,43.71574 7.0257,-0.7807 28.4933,-71.42828 26.5416,-72.59924 -1.9515,-1.17096 -41.37365,-17.56433 -41.37365,-17.56433 z"
       id="path11955" />
    <path
       style="fill:none;stroke:#333333;stroke-width:3.73393;stroke-linecap:butt;stroke-linejoin:miter;stroke-miterlimit:4;stroke-dasharray:none;stroke-opacity:1;filter:url(#filter12485)"
       d="m 291.98281,508.65932 c 0,0 28.7036,-88.31899 12.1438,-89.42297 -16.5598,-1.10399 -127.34315,-11.82626 -56.6879,-5.20234 70.6552,6.62393 183.4405,14.00816 183.4405,14.00816"
       id="path11957"
       sodipodi:nodetypes="cssc" />
    <path
       style="fill:none;stroke:#333333;stroke-width:3.73393;stroke-linecap:butt;stroke-linejoin:miter;stroke-miterlimit:4;stroke-dasharray:none;stroke-opacity:1;filter:url(#filter12481)"
       d="m 599.44311,372.31688 c 0,0 -73.9672,-32.01563 -56.3033,112.0547 16.1776,131.94964 0,0 0,0"
       id="path11959"
       sodipodi:nodetypes="csc" />
    <path
       style="fill:none;stroke:#333333;stroke-width:3.73393;stroke-linecap:butt;stroke-linejoin:miter;stroke-miterlimit:4;stroke-dasharray:none;stroke-opacity:1;filter:url(#filter12477)"
       d="m 522.71601,436.34815 c 0,0 39.7435,23.18374 73.4152,18.21579"
       id="path11961" />
    <path
       style="fill:none;stroke:#333333;stroke-width:3.73393;stroke-linecap:butt;stroke-linejoin:miter;stroke-miterlimit:4;stroke-dasharray:none;stroke-opacity:1;filter:url(#filter12473)"
       d="m 654.09061,444.07606 c 0,0 -54.6475,-4.96794 -33.1196,27.04762 21.5277,32.01574 3.3118,56.85544 42.5035,43.05554 39.1914,-13.7998 -9.3839,-70.10316 -9.3839,-70.10316 z"
       id="path11963" />
    <path
       style="fill:none;stroke:#333333;stroke-width:3.73393;stroke-linecap:butt;stroke-linejoin:miter;stroke-miterlimit:4;stroke-dasharray:none;stroke-opacity:1;filter:url(#filter12469)"
       d="m 725.84971,434.14017 c 0,0 -45.8154,140.75835 -1.656,72.86315 44.1595,-67.8952 41.3996,-66.79122 41.3996,-66.79122 l -30.9116,74.51912"
       id="path11965" />
    <path
       style="fill:none;stroke:#333333;stroke-width:3.73393;stroke-linecap:butt;stroke-linejoin:miter;stroke-miterlimit:4;stroke-dasharray:none;stroke-opacity:1;filter:url(#filter12465)"
       d="m 784.91311,509.21132 c 0,-6.0719 4.4158,-85.00703 4.4158,-85.00703 l 23.1838,78.93513 22.6318,-85.00706"
       id="path11967" />
    <path
       style="fill:none;stroke:#333333;stroke-width:3.73393;stroke-linecap:butt;stroke-linejoin:miter;stroke-miterlimit:4;stroke-dasharray:none;stroke-opacity:1;filter:url(#filter12461)"
       d="m 926.22351,378.38881 -6.072,125.85451 c 0,0 -142.9663,-26.49574 1.104,-63.47922"
       id="path11969" />
    <path
       style="fill:none;stroke:#333333;stroke-width:3.73393;stroke-linecap:butt;stroke-linejoin:miter;stroke-miterlimit:4;stroke-dasharray:none;stroke-opacity:1;filter:url(#filter12457)"
       d="m 195.49878,428.33279 c -1.5613,-0.39032 -65.9638,41.37373 -62.8413,46.44783 3.1226,5.0742 70.6477,44.49634 77.67335,43.71574 7.0257,-0.7807 28.4933,-71.42828 26.5416,-72.59924 -1.9515,-1.17096 -41.37365,-17.56433 -41.37365,-17.56433 z"
       id="path11971" />
    <path
       style="fill:none;stroke:#333333;stroke-width:3.73393;stroke-linecap:butt;stroke-linejoin:miter;stroke-miterlimit:4;stroke-dasharray:none;stroke-opacity:1;filter:url(#filter12453)"
       d="m 283.96293,514.60956 c 0,0 28.7036,-88.31899 12.1438,-89.42297 -16.5598,-1.10399 -127.34315,-11.82626 -56.6879,-5.20234 70.6552,6.62393 183.4405,14.00816 183.4405,14.00816"
       id="path11973"
       sodipodi:nodetypes="cssc" />
    <path
       style="fill:none;stroke:#333333;stroke-width:3.73393;stroke-linecap:butt;stroke-linejoin:miter;stroke-miterlimit:4;stroke-dasharray:none;stroke-opacity:1;filter:url(#filter12449)"
       d="m 518.57671,446.95509 c 0,0 39.7435,23.18374 73.4152,18.21579"
       id="path11975" />
    <path
       style="fill:none;stroke:#333333;stroke-width:3.73393;stroke-linecap:butt;stroke-linejoin:miter;stroke-miterlimit:4;stroke-dasharray:none;stroke-opacity:1;filter:url(#filter12445)"
       d="m 649.95131,454.683 c 0,0 -54.6475,-4.96794 -33.1196,27.04762 21.5277,32.01574 3.3118,56.85544 42.5035,43.05554 39.1914,-13.7998 -9.3839,-70.10316 -9.3839,-70.10316 z"
       id="path11977" />
    <path
       style="fill:none;stroke:#333333;stroke-width:3.73393;stroke-linecap:butt;stroke-linejoin:miter;stroke-miterlimit:4;stroke-dasharray:none;stroke-opacity:1;filter:url(#filter12441)"
       d="m 721.71041,444.74711 c 0,0 -45.8154,140.75835 -1.656,72.86315 44.1595,-67.8952 41.3996,-66.79122 41.3996,-66.79122 l -30.9116,74.51912"
       id="path11979" />
    <path
       style="fill:none;stroke:#333333;stroke-width:3.73393;stroke-linecap:butt;stroke-linejoin:miter;stroke-miterlimit:4;stroke-dasharray:none;stroke-opacity:1;filter:url(#filter12437)"
       d="m 780.77381,519.81826 c 0,-6.0719 4.4158,-85.00703 4.4158,-85.00703 l 23.1838,78.93513 22.6318,-85.00706"
       id="path11981" />
    <path
       style="fill:none;stroke:#333333;stroke-width:3.73393;stroke-linecap:butt;stroke-linejoin:miter;stroke-miterlimit:4;stroke-dasharray:none;stroke-opacity:1;filter:url(#filter12433)"
       d="m 919.23845,387.44352 -6.072,125.85451 c 0,0 -142.9663,-26.49574 1.104,-63.47922"
       id="path11983" />
  </g>
</svg>
