<?xml version="1.0" encoding="UTF-8" standalone="no"?>
<svg
   xmlns:dc="http://purl.org/dc/elements/1.1/"
   xmlns:cc="http://creativecommons.org/ns#"
   xmlns:rdf="http://www.w3.org/1999/02/22-rdf-syntax-ns#"
   xmlns:svg="http://www.w3.org/2000/svg"
   xmlns="http://www.w3.org/2000/svg"
   xmlns:sodipodi="http://sodipodi.sourceforge.net/DTD/sodipodi-0.dtd"
   xmlns:inkscape="http://www.inkscape.org/namespaces/inkscape"
   width="1920px"
   height="1080px"
   viewBox="0 0 1920 1080"
   version="1.1"
   id="SVGRoot"
   sodipodi:docname="bckBlack.svg"
   inkscape:version="1.0.2-2 (e86c870879, 2021-01-15)">
  <defs
     id="defs5145" />
  <sodipodi:namedview
     id="base"
     pagecolor="#ffffff"
     bordercolor="#666666"
     borderopacity="1.0"
     inkscape:pageopacity="0.0"
     inkscape:pageshadow="2"
     inkscape:zoom="0.34512431"
     inkscape:cx="1951.2561"
     inkscape:cy="436.28991"
     inkscape:document-units="px"
     inkscape:current-layer="layer1"
     inkscape:document-rotation="0"
     showgrid="false"
     inkscape:window-width="1920"
     inkscape:window-height="1001"
     inkscape:window-x="-9"
     inkscape:window-y="-9"
     inkscape:window-maximized="1"
     showguides="true"
     inkscape:guide-bbox="true" />
  <metadata
     id="metadata5148">
    <rdf:RDF>
      <cc:Work
         rdf:about="">
        <dc:format>image/svg+xml</dc:format>
        <dc:type
           rdf:resource="http://purl.org/dc/dcmitype/StillImage" />
        <dc:title />
      </cc:Work>
    </rdf:RDF>
  </metadata>
  <g
     inkscape:label="Layer 1"
     inkscape:groupmode="layer"
     id="layer1">
    <path
       style="fill:none;stroke:none;stroke-width:1px;stroke-linecap:butt;stroke-linejoin:miter;stroke-opacity:1"
       d="m -945.39639,728.80403 c 0,0 2988.38919,269.27699 2581.54679,474.16167"
       id="path5158" />
    <path
       style="fill:none;stroke:none;stroke-width:5;stroke-linecap:butt;stroke-linejoin:miter;stroke-opacity:1;stroke-miterlimit:4;stroke-dasharray:none"
       d="m 2537.643,875.15022 c -49.7578,0 -2531.7891524,-377.57317 -2956.19311,-199.03082"
       id="path5162" />
    <path
       style="fill:none;stroke:none;stroke-width:1px;stroke-linecap:butt;stroke-linejoin:miter;stroke-opacity:1"
       d="m 3166.3484,284.64294 c 0,0 1530.7812,-222.446213 1416.6312,-529.77321"
       id="path5164" />
    <path
       style="fill:none;stroke:#000000;stroke-width:0;stroke-linecap:butt;stroke-linejoin:miter;stroke-miterlimit:4;stroke-dasharray:none;stroke-opacity:1"
       d="m 4237.9443,-74.424733 c 0,0 -179.6198,-349.443057 -1337.8571,245.223223"
       id="path5168" />
    <path
       style="fill:none;stroke:none;stroke-width:0.633899px;stroke-linecap:butt;stroke-linejoin:miter;stroke-opacity:1"
       d="m 3882.1532,-106.8482 c 0,0 500.2055,60.836937 688.7445,3.57866 188.539,-57.25829 -1214.4412,9.841257 330.4241,-144.04039"
       id="path5170"
       sodipodi:nodetypes="csc" />
    <rect
       style="fill:none;stroke:#000000;stroke-width:0;stroke-linecap:square;stroke-linejoin:round;stroke-miterlimit:4;stroke-dasharray:none;paint-order:stroke fill markers"
       id="rect5172"
       width="1368.8705"
       height="775.72784"
       x="3904.887"
       y="-250.79747" />
    <path
       style="fill:#abc837;stroke:#000000;stroke-width:0;stroke-linecap:square;stroke-linejoin:round;stroke-miterlimit:4;stroke-dasharray:none;stroke-opacity:0;paint-order:stroke fill markers"
       d="m 3914.9855,411.87712 v -103.2531 h 5.4164 c 6.6295,0 116.2883,12.0832 224.7657,24.7667 553.6206,64.7309 877.5847,125.0646 940.08,175.0765 l 8.1481,6.5207 -589.2051,0.071 -589.2051,0.071 z"
       id="path5735" />
    <path
       style="fill:#bcd35f;stroke:#000000;stroke-width:0;stroke-linecap:square;stroke-linejoin:round;stroke-miterlimit:4;stroke-dasharray:none;stroke-opacity:0;paint-order:stroke fill markers"
       d="m 5090.1119,508.68942 c -48.6006,-46.2908 -325.8,-101.5165 -812.7525,-161.9224 -96.3468,-11.9518 -245.1982,-29.2423 -322.866,-37.504 l -39.7217,-4.2253 -0.5371,-62.046 -0.537,-62.046 h 54.1914 c 115.0674,0 294.447,8.9336 496.8753,24.7458 40.3328,3.1506 80.6656,6.573 89.6285,7.6055 8.9628,1.0325 27.2959,2.6518 40.7402,3.5984 48.8517,3.44 225.6371,20.7087 360.5507,35.2192 82.3794,8.8603 287.5749,32.1227 300.9681,34.1199 l 7.6388,1.1391 v 114.4539 114.4537 h -83.104 -83.1041 z"
       id="path5737" />
    <path
       style="fill:#cdde87;stroke:#000000;stroke-width:0;stroke-linecap:square;stroke-linejoin:round;stroke-miterlimit:4;stroke-dasharray:none;stroke-opacity:0;paint-order:stroke fill markers"
       d="m 5210.31,278.32592 c -167.7482,-20.2499 -572.1842,-62.5336 -606.3859,-63.3974 -2.5944,-0.065 24.2053,-4.6945 59.5549,-10.2866 224.9136,-35.58 426.5453,-77.5667 571.7842,-119.06518 l 29.0274,-8.29388 v 103.93156 c 0,57.1624 -0.2291,103.8356 -0.5092,103.7183 -0.2801,-0.1173 -24.3423,-3.0904 -53.4714,-6.6068 z"
       id="path5739" />
    <path
       style="fill:#87cdde;stroke:#000000;stroke-width:0;stroke-linecap:square;stroke-linejoin:round;stroke-miterlimit:4;stroke-dasharray:none;stroke-opacity:0;paint-order:stroke fill markers"
       d="m 4526.8931,208.34972 c -205.2274,-17.9574 -417.3043,-29.2986 -547.8768,-29.2986 h -65.2631 v -73.88747 c 0,-62.12058 0.4549,-73.88752 2.856,-73.88752 1.5708,0 27.9246,1.69894 58.564,3.77543 84.3269,5.71496 267.9216,16.55947 337.8339,19.95508 34.1708,1.65965 64.3776,3.45309 67.1261,3.9854 l 4.9972,0.96783 -6.0157,3.38038 c -3.3087,1.85922 -12.2724,6.56622 -19.9194,10.46002 -7.647,3.8938 -13.4356,7.51495 -12.8636,8.04699 0.5721,0.53204 11.647,-4.29485 24.611,-10.72642 l 23.5709,-11.69379 88.0876,3.87978 c 313.4113,13.80406 538.8172,15.42946 672.7093,4.85094 46.5424,-3.6772 91.3828,-10.16646 105.7965,-15.31075 2.6673,-0.9519 3.1836,0.69429 3.1836,10.14831 v 11.28451 l -34.7832,9.86768 c -148.9066,42.2434 -355.532,85.0153 -577.3154,119.5056 -33.5981,5.225 -64.306,9.4017 -68.2398,9.2817 -3.9338,-0.12 -29.6104,-2.1833 -57.0591,-4.5851 z"
       id="path5741" />
    <path
       style="fill:#87cdde;stroke:#000000;stroke-width:0;stroke-linecap:square;stroke-linejoin:round;stroke-miterlimit:4;stroke-dasharray:none;stroke-opacity:0;paint-order:stroke fill markers"
       d="m 4237.9443,-74.424733 c -88.0087,-2.35584 -191.762,-9.05012 -303.5608,-19.58608 l -24.8466,-2.34155 v -75.406497 -75.40652 l 482.1683,0.13777 482.1683,0.13777 -94.3451,9.86132 c -377.3394,39.441 -558.0794,62.72462 -613.6033,79.04674 -23.9531,7.04139 -23.1074,13.65466 2.2843,17.86296 28.1749,4.66955 67.3591,6.87432 216.6539,12.19043 110.5451,3.9363 158.5616,6.8896 187.1593,11.51136 12.5093,2.02166 22.1625,5.46727 22.148,7.90545 -0.032,5.41702 -38.8647,16.383227 -80.3929,22.702807 -70.5959,10.74291 -160.7638,14.46428 -275.8334,11.38404 z"
       id="path5745" />
    <path
       id="path5747"
       style="fill:#ffeeaa;stroke:#000000;stroke-width:0;stroke-linecap:square;stroke-linejoin:round;stroke-miterlimit:4;stroke-dasharray:none;stroke-opacity:0;paint-order:stroke fill markers"
       d="m 4901.3211,-247.31022 -53.3183,5.41016 c -423.3805,42.96029 -647.3975,71.75497 -689.6074,88.63867 -11.6816,4.67259 -8.6291,7.58572 11.7871,11.25 23.9998,4.30749 69.442,6.98332 190.9472,11.23828 139.8074,4.89586 196.1082,8.37795 218.9375,13.54493 25.0379,5.66688 21.914,12.93357 -9.373,21.802727 -39.9267,11.31829 -99.5844,18.86619 -177.1563,22.41406 -66.8193,3.05609 -197.2287,0.36283 -298.8808,-6.17187 -61.4966,-6.40144 -123.8828,-6.6113 -185.0879,-15.64258 l -83.1406,-5.367187 c 0,0 -41.832,-3.09199 -56.3477,-0.40039 -34.4613,6.390057 -193.2341,103.5446674 141.4199,129.07813 0.2173,0.12301 0.4537,0.17382 0.7227,0.17382 1.4603,0 20.0962,1.20047 41.4121,2.66797 88.126,6.06717 253.2613,16.04176 375.084,22.65625 70.0719,3.80464 61.2515,4.57252 85.3301,-7.42773 30.4392,-15.17029 121.4058,-57.279363 155.2148,-71.849613 222.4599,-95.870937 401.4463,-142.201097 535.1016,-138.509767 65.1796,1.80016 118.5759,15.39782 153.1738,39.00391 4.4823,3.05817 8.9609,6.0165 9.9512,6.57617 1.4307,0.80857 1.7988,-12.34191 1.7988,-64.0332 v -65.05274 h -183.9844 z"
       sodipodi:nodetypes="cssssssscccscsssssssssccc" />
    <path
       style="fill:#ffe680;stroke:#000000;stroke-width:0;stroke-linecap:square;stroke-linejoin:round;stroke-miterlimit:4;stroke-dasharray:none;stroke-opacity:0;paint-order:stroke fill markers"
       d="m 4815.5697,72.05441 c -151.6309,-3.4394 -214.8142,-5.55409 -362.6398,-12.13738 -30.1338,-1.34197 -52.0496,-2.84994 -51.7938,-3.56378 1.0039,-2.80089 109.7419,-53.8242326 171.729,-80.580713 269.3191,-116.250437 480.0665,-159.936957 614.5413,-127.390397 25.8492,6.25623 53.116,17.97731 71.0812,30.5555 l 10.0827,7.05928 v 81.042987 81.043033 l -7.9221,2.38287 c -28.9363,8.70358 -87.9799,15.46867 -172.8461,19.80429 -26.2281,1.33994 -232.2819,2.69048 -272.2324,1.78431 z"
       id="path5749" />
    <path
       style="fill:none;stroke:none;stroke-width:1.01078px;stroke-linecap:butt;stroke-linejoin:miter;stroke-opacity:1"
       d="m -4873.9326,-74.603942 c 0,0 2150.2662,178.526022 2198.1164,17.55993"
       id="path5166-1" />
    <path
       style="fill:none;stroke:#000000;stroke-width:0;stroke-linecap:butt;stroke-linejoin:miter;stroke-miterlimit:4;stroke-dasharray:none;stroke-opacity:1"
       d="m -2683.5136,-233.97788 c 0,0 -179.6198,-349.44306 -1337.8571,245.223218"
       id="path5168-8-3" />
    <path
       style="fill:none;stroke:none;stroke-width:0.898913px;stroke-linecap:butt;stroke-linejoin:miter;stroke-opacity:1"
       d="m -4680.4684,-255.95383 c 0,0 709.3262,86.27102 976.6876,5.07479 267.3614,-81.19625 -1722.1622,13.95558 468.5644,-204.25933"
       id="path5170-9-8"
       sodipodi:nodetypes="csc" />
    <rect
       style="fill:none;stroke:#000000;stroke-width:0;stroke-linecap:square;stroke-linejoin:round;stroke-miterlimit:4;stroke-dasharray:none;paint-order:stroke fill markers"
       id="rect5172-2-6"
       width="1941.1537"
       height="1100.0361"
       x="-4648.2305"
       y="-460.08398" />
    <path
       style="fill:#7c8754;fill-opacity:1;stroke:#000000;stroke-width:0;stroke-linecap:square;stroke-linejoin:round;stroke-miterlimit:4;stroke-dasharray:none;stroke-opacity:0;paint-order:stroke fill markers"
       d="M -4639.8465,479.63477 V 333.21471 h 7.7081 c 9.4345,0 165.4908,17.13479 319.8658,35.12086 787.8615,91.79301 1248.8972,177.35043 1337.8348,248.27083 l 11.5955,9.2467 -838.5021,0.1009 -838.5021,0.101 z"
       id="path5735-9-2" />
    <path
       style="fill:#bcd35f;stroke:#000000;stroke-width:0;stroke-linecap:square;stroke-linejoin:round;stroke-miterlimit:4;stroke-dasharray:none;stroke-opacity:0;paint-order:stroke fill markers"
       d="m -2967.4989,616.9214 c -68.9191,-65.6436 -462.0071,-143.95752 -1152.5396,-229.61728 -136.6266,-16.94838 -347.7082,-41.46751 -457.8465,-53.18325 l -56.3281,-5.99177 -0.7617,-87.98556 -0.7616,-87.98556 h 76.8473 c 163.1735,0 417.5463,12.66851 704.6038,35.09134 57.1947,4.46766 114.3894,9.3209 127.0994,10.78502 12.7099,1.46415 38.7075,3.76045 57.7724,5.1029 69.2752,4.8781 319.9692,29.36629 511.286,49.94325 116.8197,12.56448 407.8013,45.55222 426.7938,48.38439 l 10.8323,1.61533 V 465.3838 627.6872 h -117.8473 -117.8473 z"
       id="path5737-0-6" />
    <path
       style="fill:#3b6744;fill-opacity:1;stroke:#000000;stroke-width:0;stroke-linecap:square;stroke-linejoin:round;stroke-miterlimit:4;stroke-dasharray:none;stroke-opacity:0;paint-order:stroke fill markers"
       d="m -2796.433,290.24992 c -238.0491,-28.71579 -811.9787,-88.67696 -860.5138,-89.90199 -3.6818,-0.0929 34.3493,-6.65712 84.5134,-14.58709 319.1719,-50.45493 605.3046,-109.994892 811.4113,-168.842702 l 41.1923,-11.7612999 V 152.53906 c 0,81.06023 -0.325,147.24609 -0.7226,147.0797 -0.3975,-0.16628 -34.5437,-4.38239 -75.8806,-9.36884 z"
       id="path5739-1-4" />
    <path
       style="fill:#3b6958;fill-opacity:1;stroke:#000000;stroke-width:0;stroke-linecap:square;stroke-linejoin:round;stroke-miterlimit:4;stroke-dasharray:none;stroke-opacity:0;paint-order:stroke fill markers"
       d="m -3767.2965,191.01879 c -292.0844,-25.4649 -593.9173,-41.54741 -779.7512,-41.54741 h -92.884 V 44.693738 c 0,-88.09131 0.6473,-104.77765 4.0647,-104.77765 2.2356,0 39.743,2.40922 83.3497,5.35382 120.016,8.10422 381.3123,23.48249 480.8132,28.29769 48.6327,2.35351 91.6236,4.89673 95.5354,5.65158 l 7.1122,1.37245 -8.5617,4.79362 c -4.709,2.6365 -17.4664,9.3113601 -28.3498,14.83303013 -10.8833,5.52167997 -19.1218,10.65672987 -18.3076,11.41118987 0.8141,0.75447 16.5762,-6.0903899 35.0268,-15.2108099 l 33.5467,-16.5826001 125.3683,5.50179 c 446.0545,19.5751301 766.8575,21.8800601 957.416,6.8789701 66.2401,-5.2145201 130.058,-14.4167401 150.572,-21.7117001 3.7961,-1.34987 4.5309,0.98454 4.5309,14.39101 V 0.89833813 l -49.5043,13.99306987 c -211.9274,59.90402 -506.0015,120.557622 -821.6489,169.467292 -47.8175,7.40937 -91.5218,13.33231 -97.1205,13.16206 -5.5987,-0.17022 -42.1422,-3.09611 -81.2079,-6.50197 z"
       id="path5741-1-8" />
    <path
       style="fill:#7d8596;fill-opacity:1;stroke:#000000;stroke-width:0;stroke-linecap:square;stroke-linejoin:round;stroke-miterlimit:4;stroke-dasharray:none;stroke-opacity:0;paint-order:stroke fill markers"
       d="m -4175.932,-209.9751 c -124.8024,-3.34074 -271.9318,-12.8337 -430.4703,-27.77442 l -35.2342,-3.32048 v -106.93168 -106.93171 l 683.7482,0.19537 683.7483,0.19537 -133.7879,13.98404 c -535.0936,55.93008 -791.3955,88.94789 -870.1323,112.09379 -33.9672,9.98519 -32.7679,19.36327 3.2393,25.33092 39.954,6.62175 95.52,9.74827 307.2304,17.28689 156.7606,5.58195 224.8514,9.76993 265.4049,16.32391 17.739,2.86685 31.428,7.75296 31.4074,11.21047 -0.046,7.68172 -55.1128,23.23257 -114.0028,32.19417 -100.1099,15.23419 -227.9742,20.51136 -391.151,16.14336 z"
       id="path5745-8-7" />
    <path
       style="fill:#a1946b;fill-opacity:1;stroke:#000000;stroke-width:0;stroke-linecap:square;stroke-linejoin:round;stroke-miterlimit:4;stroke-dasharray:none;stroke-opacity:0;paint-order:stroke fill markers"
       d="m -4047.2054,-27.884382 c -172.7531,-9.37981 -406.9286,-23.52485 -531.8975,-32.12851 -30.2274,-2.08102 -56.6531,-3.78371 -58.7237,-3.78371 -3.6037,0 -3.7649,-3.74896 -3.7649,-87.553978 v -87.55397 l 7.6596,1.12973 c 22.6989,3.34797 174.5023,15.89015 254.8098,21.0527 144.1499,9.26666 329.0776,13.08506 423.832,8.75131 110.0023,-5.03113 194.602,-15.73485 251.2208,-31.78497 44.3672,-12.57709 48.7967,-22.88087 13.2913,-30.91689 -32.3736,-7.32714 -112.2131,-12.26706 -310.4697,-19.20973 -172.3028,-6.03383 -236.7414,-9.82578 -270.7748,-15.9341 -28.9515,-5.1962 -33.2815,-9.3291 -16.7161,-15.95516 59.8566,-23.94225 377.5294,-64.77391 977.9124,-125.6946 l 75.6098,-7.67211 h 260.9028 260.9024 v 92.24841 c 0,73.30185 -0.5243,91.95203 -2.5531,90.80543 -1.4043,-0.79366 -7.7536,-4.99122 -14.1097,-9.32792 -49.0623,-33.47508 -124.7814,-52.75538 -217.2106,-55.30812 -189.5326,-5.23457 -443.349,60.46511 -758.8127,196.41678 -47.9435,20.66164 -176.9391,80.373728 -220.1041,101.886258 -34.1451,17.01718 -21.6371,15.92839 -121.004,10.53315 z"
       id="path5747-2-4" />
    <path
       style="fill:#bfb48d;fill-opacity:1;stroke:#000000;stroke-width:0;stroke-linecap:square;stroke-linejoin:round;stroke-miterlimit:4;stroke-dasharray:none;stroke-opacity:0;paint-order:stroke fill markers"
       d="m -3356.8189,-2.2574719 c -215.0232,-4.8773 -304.6214,-7.8760801 -514.2485,-17.2116501 -42.7318,-1.903 -73.8099,-4.04141 -73.4471,-5.05368 1.4235,-3.97186 155.6216,-76.326508 243.5237,-114.269068 381.9132,-164.85122 680.7676,-226.80177 871.4622,-180.64846 36.656,8.87176 75.3222,25.49308 100.7982,43.32982 l 14.298,10.01055 v 114.92462 114.924648 l -11.2342,3.37908 c -41.0336,12.34228 -124.7616,21.93565 -245.1078,28.0838701 -37.1932,1.90013 -329.3919,3.81529003 -386.0445,2.53027 z"
       id="path5749-1-3" />
    <path
       style="fill:#abc837;stroke-width:0;stroke-linecap:square;stroke-linejoin:round;stroke-opacity:0;paint-order:stroke fill markers"
       d="m -2965.5024,617.9411 c -22.8129,-20.9725 -66.2422,-39.896 -140.9597,-61.4206 -226.3619,-65.21007 -736.4034,-142.82512 -1453.9536,-221.2539 -39.2782,-4.29315 -71.7931,-8.16005 -72.2552,-8.59315 -0.4621,-0.43307 -1.0734,-39.78409 -1.3584,-87.4467 l -0.5183,-86.6593 104.7002,1.05303 c 98.2453,0.98811 126.2384,1.75573 227.3661,6.23481 163.6008,7.2461 426.7112,25.02929 571.3203,38.61457 19.408,1.82329 54.1914,4.85086 77.2962,6.72793 175.5027,14.25807 703.7739,69.75576 907.3911,95.32624 l 23.525,2.95429 0.4285,161.73406 0.4285,161.73412 h -116.8076 -116.8077 z"
       id="path1658-7" />
    <path
       style="fill:#5b6e5b;fill-opacity:1;stroke-width:0;stroke-linecap:square;stroke-linejoin:round;stroke-opacity:0;paint-order:stroke fill markers"
       d="m -2964.2672,615.9309 c -15.3633,-13.0694 -42.5909,-27.3641 -74.3733,-39.0465 -190.0275,-69.8489 -710.2428,-152.66103 -1511.4801,-240.60977 -42.7507,-4.69258 -80.1997,-8.97151 -83.2201,-9.50876 l -5.4917,-0.97679 -0.01,-44.76246 c 0,-24.61935 -0.5046,-63.47739 -1.1134,-86.35121 l -1.107,-41.58876 15.8987,0.0437 c 49.9054,0.13727 224.9426,3.45997 260.9143,4.95289 289.1414,12.00016 615.1758,36.43649 986.8111,73.96163 155.2032,15.67134 272.092,27.97793 408.0743,42.96395 106.3933,11.72515 237.8845,27.05635 245.4359,28.61658 l 4.6469,0.96009 0.017,116.231 c 0,63.92703 0.5063,136.45831 1.1109,161.18051 l 1.0993,44.9495 -117.2811,-0.1277 -117.2811,-0.1278 -12.6488,-10.7602 z"
       id="path1660-8" />
    <path
       style="fill:none;stroke:#000000;stroke-width:0;stroke-linecap:butt;stroke-linejoin:miter;stroke-miterlimit:4;stroke-dasharray:none;stroke-opacity:1"
       d="m 1100.1064,-2324.4658 c 0,0 -179.61984,-349.443 -1337.85714,245.2232"
       id="path5168-8-2" />
    <path
       style="fill:none;stroke:none;stroke-width:0.898913px;stroke-linecap:butt;stroke-linejoin:miter;stroke-opacity:1"
       d="m -896.84844,-2346.4417 c 0,0 709.3262,86.271 976.6876,5.0748 267.3614,-81.1963 -1722.16216,13.9555 468.5644,-204.2594"
       id="path5170-9-84"
       sodipodi:nodetypes="csc" />
    <rect
       style="fill:none;stroke:#000000;stroke-width:0;stroke-linecap:square;stroke-linejoin:round;stroke-miterlimit:4;stroke-dasharray:none;paint-order:stroke fill markers"
       id="rect5172-2-4"
       width="1941.1537"
       height="1100.0361"
       x="-864.61066"
       y="-2550.5718" />
    <path
       style="fill:#3b4028;fill-opacity:1;stroke:#000000;stroke-width:0;stroke-linecap:square;stroke-linejoin:round;stroke-miterlimit:4;stroke-dasharray:none;stroke-opacity:0;paint-order:stroke fill markers"
       d="m -856.2265,-1610.8531 v -146.4201 h 7.70808 c 9.4345,0 165.49073,17.1348 319.8658,35.1209 787.86148,91.793 1248.89718,177.3504 1337.83478,248.2708 l 11.5955,9.2467 -838.50213,0.1009 -838.50203,0.101 z"
       id="path5735-9-3" />
    <path
       style="fill:#bcd35f;stroke:#000000;stroke-width:0;stroke-linecap:square;stroke-linejoin:round;stroke-miterlimit:4;stroke-dasharray:none;stroke-opacity:0;paint-order:stroke fill markers"
       d="m 816.12106,-1473.5665 c -68.9191,-65.6436 -462.0071,-143.9575 -1152.5396,-229.6173 -136.6266,-16.9484 -347.7082,-41.4675 -457.8465,-53.1832 l -56.3281,-5.9918 -0.7617,-87.9856 -0.7616,-87.9855 h 76.8473 c 163.1735,0 417.5463,12.6685 704.6038,35.0913 57.1947,4.4677 114.3894,9.3209 127.0994,10.785 12.7099,1.4642 38.7075,3.7605 57.7724,5.1029 69.2752,4.8781 319.9692,29.3663 511.286,49.9433 116.8197,12.5645 407.80134,45.5522 426.79384,48.3844 l 10.8323,1.6153 v 162.3036 162.3034 H 945.27126 827.42396 Z"
       id="path5737-0-2" />
    <path
       style="fill:#294830;fill-opacity:1;stroke:#000000;stroke-width:0;stroke-linecap:square;stroke-linejoin:round;stroke-miterlimit:4;stroke-dasharray:none;stroke-opacity:0;paint-order:stroke fill markers"
       d="m 987.18696,-1800.238 c -238.0491,-28.7158 -811.9787,-88.6769 -860.51382,-89.902 -3.68174,-0.093 34.34932,-6.6571 84.51342,-14.5871 319.1719,-50.4549 605.3046,-109.9949 811.41134,-168.8427 l 41.1923,-11.7613 v 147.3823 c 0,81.0602 -0.325,147.246 -0.7226,147.0797 -0.3975,-0.1663 -34.5437,-4.3824 -75.88064,-9.3689 z"
       id="path5739-1-9" />
    <path
       style="fill:#2f5446;fill-opacity:1;stroke:#000000;stroke-width:0;stroke-linecap:square;stroke-linejoin:round;stroke-miterlimit:4;stroke-dasharray:none;stroke-opacity:0;paint-order:stroke fill markers"
       d="m 16.32348,-1899.4691 c -292.08446,-25.4649 -593.91733,-41.5474 -779.7512,-41.5474 h -92.88397 v -104.7777 c 0,-88.0913 0.64724,-104.7776 4.06462,-104.7776 2.23559,0 39.74302,2.4092 83.34974,5.3538 120.01603,8.1042 381.31229,23.4825 480.81323,28.2977 48.63271,2.3535 91.6236,4.8967 95.53537,5.6516 l 7.11216,1.3724 -8.56171,4.7936 c -4.70896,2.6365 -17.46636,9.3114 -28.34976,14.8331 -10.88332,5.5217 -19.12175,10.6567 -18.30761,11.4112 0.81415,0.7544 16.57624,-6.0904 35.02685,-15.2108 l 33.54669,-16.5826 125.3683,5.5017 c 446.05447,19.5752 766.85747,21.8801 957.41597,6.879 66.2401,-5.2145 130.05804,-14.4167 150.57204,-21.7117 3.7961,-1.3499 4.5309,0.9846 4.5309,14.391 v 16.0022 l -49.5043,13.9931 c -211.92744,59.904 -506.00154,120.5576 -821.64894,169.4673 -47.8175,7.4094 -91.52181,13.3323 -97.12049,13.1621 -5.59867,-0.1703 -42.14221,-3.0962 -81.20789,-6.502 z"
       id="path5741-1-7" />
    <path
       style="fill:#5d6370;fill-opacity:1;stroke:#000000;stroke-width:0;stroke-linecap:square;stroke-linejoin:round;stroke-miterlimit:4;stroke-dasharray:none;stroke-opacity:0;paint-order:stroke fill markers"
       d="m -392.31204,-2300.463 c -124.8024,-3.3407 -271.9318,-12.8337 -430.4703,-27.7744 l -35.2342,-3.3205 v -106.9317 -106.9317 l 683.7482,0.1954 683.7483,0.1954 -133.7879,13.984 c -535.0936,55.9301 -791.3955,88.9479 -870.1323,112.0938 -33.9672,9.9852 -32.7679,19.3632 3.2393,25.3309 39.954,6.6217 95.52,9.7483 307.2304,17.2869 156.7606,5.5819 224.8514,9.7699 265.4049,16.3239 17.739,2.8668 31.428,7.753 31.4074,11.2105 -0.046,7.6817 -55.1128,23.2325 -114.0028,32.1941 -100.1099,15.2342 -227.9742,20.5114 -391.151,16.1434 z"
       id="path5745-8-1" />
    <path
       style="fill:#675f45;fill-opacity:1;stroke:#000000;stroke-width:0;stroke-linecap:square;stroke-linejoin:round;stroke-miterlimit:4;stroke-dasharray:none;stroke-opacity:0;paint-order:stroke fill markers"
       d="m -263.58544,-2118.3723 c -172.7531,-9.3798 -406.9286,-23.5248 -531.8975,-32.1285 -30.2274,-2.081 -56.6531,-3.7837 -58.7237,-3.7837 -3.6037,0 -3.7649,-3.749 -3.7649,-87.554 v -87.554 l 7.6596,1.1298 c 22.6989,3.3479 174.5023,15.8901 254.8098,21.0527 144.1499,9.2666 329.0776,13.085 423.832,8.7513 110.0023,-5.0311 194.602,-15.7349 251.2208,-31.785 44.3672,-12.5771 48.7967,-22.8809 13.2913,-30.9169 -32.3736,-7.3271 -112.2131,-12.267 -310.4697,-19.2097 -172.3028,-6.0338 -236.7414,-9.8258 -270.7748,-15.9341 -28.9515,-5.1962 -33.2815,-9.3291 -16.7161,-15.9552 59.8566,-23.9422 377.5294,-64.7739 977.9124,-125.6946 l 75.6098,-7.6721 h 260.9028 260.90244 v 92.2484 c 0,73.3019 -0.5243,91.9521 -2.5531,90.8055 -1.4043,-0.7937 -7.7536,-4.9913 -14.1097,-9.3279 -49.0623,-33.4751 -124.78144,-52.7554 -217.21064,-55.3082 -189.5326,-5.2345 -443.349,60.4651 -758.8127,196.4168 -47.9435,20.6616 -176.9391,80.3737 -220.1041,101.8863 -34.1451,17.0171 -21.6371,15.9284 -121.004,10.5331 z"
       id="path5747-2-3" />
    <path
       style="fill:#7b745b;fill-opacity:1;stroke:#000000;stroke-width:0;stroke-linecap:square;stroke-linejoin:round;stroke-miterlimit:4;stroke-dasharray:none;stroke-opacity:0;paint-order:stroke fill markers"
       d="m 426.80106,-2092.7454 c -215.0232,-4.8773 -304.6214,-7.8761 -514.2485,-17.2116 -42.7318,-1.903 -73.8099,-4.0414 -73.4471,-5.0537 1.4235,-3.9719 155.6216,-76.3265 243.5237,-114.2691 381.9132,-164.8512 680.7676,-226.8017 871.4622,-180.6484 36.656,8.8717 75.32224,25.493 100.79824,43.3298 l 14.298,10.0105 v 114.9247 114.9246 l -11.2342,3.3791 c -41.0336,12.3423 -124.76164,21.9356 -245.10784,28.0839 -37.1932,1.9001 -329.3919,3.8152 -386.0445,2.5302 z"
       id="path5749-1-4" />
    <path
       style="fill:#abc837;stroke-width:0;stroke-linecap:square;stroke-linejoin:round;stroke-opacity:0;paint-order:stroke fill markers"
       d="m 818.11756,-1472.5468 c -22.8129,-20.9725 -66.2422,-39.896 -140.9597,-61.4206 -226.3619,-65.2101 -736.4034,-142.8251 -1453.9536,-221.2539 -39.2782,-4.2932 -71.7931,-8.1601 -72.2552,-8.5932 -0.4621,-0.433 -1.0734,-39.784 -1.3584,-87.4467 l -0.5183,-86.6593 104.7002,1.0531 c 98.2453,0.9881 126.2384,1.7557 227.3661,6.2348 163.6008,7.2461 426.7112,25.0293 571.3203,38.6146 19.408,1.8232 54.1914,4.8508 77.2962,6.7279 175.5027,14.2581 703.7739,69.7557 907.39114,95.3262 l 23.525,2.9543 0.4285,161.7341 0.4285,161.7341 H 944.72066 827.91296 Z"
       id="path1658-2" />
    <path
       style="fill:#404d40;fill-opacity:1;stroke-width:0;stroke-linecap:square;stroke-linejoin:round;stroke-opacity:0;paint-order:stroke fill markers"
       d="m 819.35276,-1474.557 c -15.3633,-13.0694 -42.5909,-27.3641 -74.3733,-39.0465 -190.0275,-69.8489 -710.24275,-152.661 -1511.4801,-240.6098 -42.75068,-4.6926 -80.19969,-8.9715 -83.22009,-9.5087 l -5.49173,-0.9768 -0.0101,-44.7625 c 0,-24.6193 -0.5046,-63.4774 -1.11339,-86.3512 l -1.10705,-41.5888 15.89869,0.044 c 49.90547,0.1373 224.94265,3.46 260.91435,4.9529 289.14137,12.0002 615.17577,36.4365 986.81108,73.9617 155.2032,15.6713 272.092,27.9779 408.0743,42.9639 106.3933,11.7252 237.88454,27.0564 245.43594,28.6166 l 4.6469,0.9601 0.017,116.231 c 0,63.927 0.5063,136.4583 1.1109,161.1805 l 1.0993,44.9495 -117.28114,-0.1277 -117.2811,-0.1278 -12.6488,-10.7602 z"
       id="path1660-7" />
    <path
       style="fill:none;stroke:none;stroke-width:1.01078px;stroke-linecap:butt;stroke-linejoin:miter;stroke-opacity:1"
       d="m -616.3271,360.96619 c 0,0 2150.2662,178.52602 2198.1164,17.55993"
       id="path5166-1-6" />
    <path
       style="fill:none;stroke:#000000;stroke-width:0;stroke-linecap:butt;stroke-linejoin:miter;stroke-miterlimit:4;stroke-dasharray:none;stroke-opacity:1"
       d="m -1581.958,-1738.2827 c 0,0 -179.6198,-349.4431 -1337.8571,245.2232"
       id="path5168-8-3-0" />
    <path
       style="fill:none;stroke:none;stroke-width:0.898913px;stroke-linecap:butt;stroke-linejoin:miter;stroke-opacity:1"
       d="m -3578.9128,-1760.2586 c 0,0 709.3262,86.271 976.6876,5.0747 267.3614,-81.1962 -1722.1622,13.9556 468.5644,-204.2593"
       id="path5170-9-8-2"
       sodipodi:nodetypes="csc" />
    <rect
       style="fill:none;stroke:#000000;stroke-width:0;stroke-linecap:square;stroke-linejoin:round;stroke-miterlimit:4;stroke-dasharray:none;paint-order:stroke fill markers"
       id="rect5172-2-6-0"
       width="1941.1537"
       height="1100.0361"
       x="-3546.675"
       y="-1964.3888" />
    <path
       style="fill:#3b6744;fill-opacity:1;stroke:#000000;stroke-width:0;stroke-linecap:square;stroke-linejoin:round;stroke-miterlimit:4;stroke-dasharray:none;stroke-opacity:0;paint-order:stroke fill markers"
       d="m -1691.3852,-1214.0549 c -239.0149,-28.7158 -815.273,-88.6769 -864.005,-89.902 -3.6967,-0.093 34.4887,-6.6571 84.8563,-14.5871 320.4668,-50.4549 607.7604,-109.9949 814.7033,-168.8427 l 41.3594,-11.7613 v 147.3822 c 0,81.0603 -0.3263,147.2462 -0.7256,147.0798 -0.3991,-0.1663 -34.6838,-4.3824 -76.1884,-9.3689 z"
       id="path5739-1-4-9" />
    <path
       style="fill:#3b6958;fill-opacity:1;stroke:#000000;stroke-width:0;stroke-linecap:square;stroke-linejoin:round;stroke-miterlimit:4;stroke-dasharray:none;stroke-opacity:0;paint-order:stroke fill markers"
       d="m -2665.0832,-1313.1938 c -292.3045,-25.4841 -594.3649,-41.5788 -780.3389,-41.5788 h -92.954 v -104.8566 c 0,-88.1577 0.6478,-104.8566 4.0678,-104.8566 2.2372,0 39.7729,2.411 83.4125,5.3578 120.1064,8.1104 381.5997,23.5002 481.1756,28.3191 48.6693,2.3552 91.6926,4.9004 95.6074,5.6558 l 7.1176,1.3735 -8.5682,4.7972 c -4.7126,2.6385 -17.4796,9.3184 -28.3712,14.8442 -10.8915,5.5259 -19.1362,10.6648 -18.3214,11.4198 0.8147,0.7551 16.5887,-6.095 35.0532,-15.2223 l 33.572,-16.595 125.4628,5.5059 c 446.3907,19.5899 767.4355,21.8965 958.1376,6.8841 66.2901,-5.2184 130.1561,-14.4276 150.6855,-21.728 3.799,-1.3509 4.5344,0.9853 4.5344,14.4018 v 16.0143 l -49.5417,14.0036 c -212.0871,59.9492 -506.3828,120.6485 -822.2682,169.595 -47.8535,7.415 -91.5907,13.3424 -97.1937,13.1721 -5.6029,-0.1705 -42.1739,-3.0985 -81.2691,-6.5069 z"
       id="path5741-1-8-5" />
    <path
       style="fill:#7d8596;fill-opacity:1;stroke:#000000;stroke-width:0;stroke-linecap:square;stroke-linejoin:round;stroke-miterlimit:4;stroke-dasharray:none;stroke-opacity:0;paint-order:stroke fill markers"
       d="m -3074.3764,-1714.2799 c -124.8024,-3.3408 -271.9318,-12.8337 -430.4703,-27.7744 l -35.2342,-3.3205 v -106.9317 -106.9317 l 683.7482,0.1954 683.7483,0.1953 -133.7879,13.9841 c -535.0936,55.93 -791.3955,88.9479 -870.1323,112.0938 -33.9672,9.9852 -32.7679,19.3632 3.2393,25.3309 39.954,6.6217 95.52,9.7483 307.2304,17.2869 156.7606,5.5819 224.8514,9.7699 265.4049,16.3239 17.739,2.8668 31.428,7.7529 31.4074,11.2105 -0.046,7.6817 -55.1128,23.2325 -114.0028,32.1941 -100.1099,15.2342 -227.9742,20.5114 -391.151,16.1434 z"
       id="path5745-8-7-1" />
    <path
       style="fill:#a1946b;fill-opacity:1;stroke:#000000;stroke-width:0;stroke-linecap:square;stroke-linejoin:round;stroke-miterlimit:4;stroke-dasharray:none;stroke-opacity:0;paint-order:stroke fill markers"
       d="m -2945.6498,-1532.1892 c -172.7531,-9.3798 -406.9286,-23.5248 -531.8975,-32.1285 -30.2274,-2.081 -56.6531,-3.7837 -58.7237,-3.7837 -3.6037,0 -3.7649,-3.749 -3.7649,-87.554 v -87.554 l 7.6596,1.1298 c 22.6989,3.3479 174.5023,15.8901 254.8098,21.0527 144.1499,9.2666 329.0776,13.085 423.832,8.7513 110.0023,-5.0312 194.602,-15.7349 251.2208,-31.785 44.3672,-12.5771 48.7967,-22.8809 13.2913,-30.9169 -32.3736,-7.3271 -112.2131,-12.267 -310.4697,-19.2097 -172.3028,-6.0338 -236.7414,-9.8258 -270.7748,-15.9341 -28.9515,-5.1962 -33.2815,-9.3291 -16.7161,-15.9552 59.8566,-23.9422 377.5294,-64.7739 977.9124,-125.6946 l 75.6098,-7.6721 250.6588,-66.4158 271.1464,66.4158 v 92.2484 c 0,73.3019 -0.5243,91.9521 -2.5531,90.8055 -1.4043,-0.7937 -7.7536,-4.9913 -14.1097,-9.328 -49.0623,-33.475 -124.7814,-52.7553 -217.2106,-55.3081 -189.5326,-5.2346 -443.349,60.4651 -758.8127,196.4168 -47.9435,20.6616 -176.9391,80.3737 -220.1041,101.8863 -34.1451,17.0171 -21.6371,15.9283 -121.004,10.5331 z"
       id="path5747-2-4-4"
       sodipodi:nodetypes="sssscssssssssscccsssssss" />
    <path
       style="fill:#bfb48d;fill-opacity:1;stroke:#000000;stroke-width:0;stroke-linecap:square;stroke-linejoin:round;stroke-miterlimit:4;stroke-dasharray:none;stroke-opacity:0;paint-order:stroke fill markers"
       d="m -2255.2633,-1506.5623 c -215.0232,-4.8773 -304.6214,-7.8761 -514.2485,-17.2116 -42.7318,-1.903 -73.8099,-4.0414 -73.4471,-5.0537 1.4235,-3.9719 155.6216,-76.3265 243.5237,-114.2691 381.9132,-164.8512 680.7676,-226.8018 871.4622,-180.6484 36.656,8.8717 75.3222,25.493 100.7982,43.3298 l 14.298,10.0105 v 114.9246 114.9247 l -11.2342,3.3791 c -41.0336,12.3423 -124.7616,21.9356 -245.1078,28.0838 -37.1932,1.9002 -329.3919,3.8153 -386.0445,2.5303 z"
       id="path5749-1-3-4" />
    <path
       style="fill:#5b6e5b;fill-opacity:1;stroke-width:0;stroke-linecap:square;stroke-linejoin:round;stroke-opacity:0;paint-order:stroke fill markers"
       d="m -1859.5551,-888.37391 c -15.3922,-13.0694 -42.6711,-27.3641 -74.5133,-39.0465 -190.3852,-69.84885 -711.5798,-152.66099 -1514.3254,-240.60979 -42.8312,-4.6925 -80.3507,-8.9715 -83.3768,-9.5087 l -5.502,-0.9768 -0.01,-44.7625 c 0,-24.6193 -0.5056,-63.4774 -1.1155,-86.3512 l -1.1091,-41.5888 15.9286,0.044 c 49.9994,0.1373 225.3661,3.46 261.4055,4.9529 289.6857,12.0002 616.3338,36.4365 988.6687,73.9617 155.4954,15.6713 272.6042,27.9779 408.8425,42.9639 106.5936,11.7252 238.3323,27.0564 245.8979,28.6166 l 6.3204,1.2162 0.017,116.071 c 0,63.927 -0.032,161.09219 -0.032,161.09219 l 0.9093,44.9495 -117.83,-0.1355 -117.5019,-0.1278 -12.6726,-10.7602 z"
       id="path1660-8-3"
       sodipodi:nodetypes="ccssccscssssscccccccc" />
    <path
       style="fill:#7d8596;fill-opacity:1;stroke:#000000;stroke-width:11;stroke-linecap:square;stroke-linejoin:round;stroke-opacity:0;paint-order:stroke fill markers"
       d="m -2977.7639,-878.72561 c -121.8268,-0.037 -297.7401,-0.018 -390.9184,0.042 l -169.415,0.109 0.2588,-78.0266 c 0.1423,-42.91465 0.1002,-108.61869 -0.094,-146.00909 l -0.3525,-67.9824 11.2529,0.5258 c 24.6687,1.1527 293.763,31.3538 424.0024,47.5868 447.2867,55.7497 711.7574,111.2704 846.113,177.62579 28.4672,14.0593 56.045,31.241 78.9663,49.1981 l 23.2239,17.4498 -39.5851,0.055 c -27.7664,0.039 -523.2384,0.1726 -548.9368,-0.05 -7.1504,-0.062 -112.689,-0.4868 -234.5158,-0.5237 z"
       id="path1201"
       sodipodi:nodetypes="cscsccsssscsscc" />
    <path
       style="fill:#a1946b;fill-opacity:1;stroke:none;stroke-width:235.467;stroke-linecap:square;stroke-linejoin:round;stroke-miterlimit:4;stroke-dasharray:none;stroke-opacity:0;paint-order:stroke fill markers"
       d="m -2153.4813,-881.80571 c -4.098,-2.7875 -11.2851,-8.0919 -15.9712,-11.7874 -40.3092,-31.7879 -79.3185,-53.5311 -134.7415,-75.10298 -138.4396,-53.88401 -377.3876,-101.56341 -746.6396,-148.98371 -24.8297,-3.1887 -45.606,-5.7952 -46.1694,-5.7923 -0.6212,0 -1.028,-0.6903 -1.0335,-1.7625 -0.01,-1.2315 0.3773,-1.7697 1.265,-1.7743 0.7008,0 18.7698,2.1354 40.1535,4.7534 394.7741,48.3318 696.2603,94.3892 900.1211,137.50951 148.0355,31.31218 245.6749,62.01188 284.4128,89.42488 2.947,2.0854 8.54,6.7955 12.4288,10.4669 l 7.0708,6.6753 -82.3789,0.019 c -130.2099,0.03 -205.9163,0.3617 -208.5946,0.9133 -2.2604,0.4655 -3.1107,0.075 -9.9233,-4.5592 z"
       id="path1343" />
    <path
       style="fill:none;stroke:none;stroke-width:1px;stroke-linecap:butt;stroke-linejoin:miter;stroke-opacity:1"
       d="m -5079.8755,1476.3484 c 0,0 -34.0457,1081.4944 977.1841,1078.5969 1011.2299,-2.8976 188.338,-814.1994 188.338,-814.1994 0,0 -414.3435,-379.5734 310.0332,-5.795 724.3767,373.7784 115.9002,846.0719 115.9002,846.0719"
       id="path108" />
    <path
       style="fill:none;stroke:none;stroke-width:1px;stroke-linecap:butt;stroke-linejoin:miter;stroke-opacity:1"
       d="m -3478.4294,1494.4578 -422.5746,546.1934 c 0,0 -614.654,799.0502 -848.2225,249.9593 -233.5685,-549.0909 536.7978,-274.5454 536.7978,-274.5454 0,0 467.137,155.7123 -20.4884,-241.7639 -487.6255,-397.4763 -348.3039,-282.7409 -348.3039,-282.7409"
       id="path112" />
    <path
       style="fill:none;stroke:none;stroke-width:1px;stroke-linecap:butt;stroke-linejoin:miter;stroke-opacity:1"
       d="m -4581.221,2571.9681 c 0,0 -944.1461,-445.8538 -266.1296,-886.2748 678.0166,-440.421 266.1296,512.8587 266.1296,512.8587 0,0 -71.9966,176.7479 371.3219,107.2077 443.3185,-69.5401 1028.7152,-481.8957 1028.7152,-481.8957"
       id="path114" />
    <path
       style="fill:none;stroke:none;stroke-width:1px;stroke-linecap:butt;stroke-linejoin:miter;stroke-opacity:1"
       d="m -5114.6895,1832.5607 861.2839,-193.4834 c 0,0 819.5386,-237.6662 245.8616,614.654 -573.677,852.3201 -249.9593,-421.1706 -249.9593,-421.1706 0,0 334.9864,-171.9705 1002.9104,741.815"
       id="path118"
       sodipodi:nodetypes="ccscc" />
    <path
       style="fill:none;stroke:none;stroke-width:1px;stroke-linecap:butt;stroke-linejoin:miter;stroke-opacity:1"
       d="m -5079.8755,1476.3484 -79.6814,-3.6219 -3.5366,1227.6533 2057.042,-32.7815 -32.7816,-1335.848 -1938.2088,24.5862 z"
       id="path120" />
    <path
       style="fill:none;stroke:none;stroke-width:1px;stroke-linecap:butt;stroke-linejoin:miter;stroke-opacity:1"
       d="m -5114.6895,1832.5607 h -45.971"
       id="path122" />
    <path
       style="fill:none;stroke:none;stroke-width:1px;stroke-linecap:butt;stroke-linejoin:miter;stroke-opacity:1"
       d="m -4581.221,2571.9681 v 128.4117"
       id="path124" />
    <path
       style="fill:none;stroke:none;stroke-width:1px;stroke-linecap:butt;stroke-linejoin:miter;stroke-opacity:1"
       d="m -3488.42,2581.0228 10.6492,113.5032"
       id="path126" />
    <path
       style="fill:none;stroke:none;stroke-width:1px;stroke-linecap:butt;stroke-linejoin:miter;stroke-opacity:1"
       d="m -3254.5929,2574.3757 14.3419,100.3935 c 0,0 202.8359,108.5889 199.7626,112.6866"
       id="path128" />
    <path
       style="fill:none;stroke:none;stroke-width:1px;stroke-linecap:butt;stroke-linejoin:miter;stroke-opacity:1"
       d="m -3197.7638,1832.5607 h 70.1994 6.1465"
       id="path130" />
    <path
       style="fill:none;stroke:none;stroke-width:1px;stroke-linecap:butt;stroke-linejoin:miter;stroke-opacity:1"
       d="m -3478.4294,1494.4578 170.5665,-214.9531"
       id="path132" />
    <path
       style="fill:none;stroke:none;stroke-width:1px;stroke-linecap:butt;stroke-linejoin:miter;stroke-opacity:1"
       d="M -4581.221,1491.5603 -4848.5955,1248.772"
       id="path134" />
    <path
       style="fill:#bfb48d;fill-opacity:1;stroke:#000000;stroke-width:682.266;stroke-linecap:square;stroke-linejoin:round;stroke-opacity:0;paint-order:stroke fill markers"
       d="m -4970.1325,1784.1904 c 34.8482,-33.6898 73.124,-63.6841 122.14,-95.7133 85.1062,-55.6121 162.9974,-94.1388 220.5645,-109.096 87.2364,-22.6659 140.8473,2.4329 159.9875,74.9008 2.2283,8.4365 4.5931,18.5889 5.2552,22.5611 l 1.2039,7.222 -258.6733,58.1614 c -142.2702,31.9888 -260.9781,58.528 -263.7953,58.976 -4.048,0.6438 -1.2554,-2.9235 13.3175,-17.012 z"
       id="path138" />
    <path
       style="fill:#bfb48d;fill-opacity:1;stroke:none;stroke-width:682.266;stroke-linecap:square;stroke-linejoin:round;stroke-opacity:0;paint-order:stroke fill markers"
       d="m -4529.4374,2472.8395 c -61.1722,-27.6436 -116.5649,-60.0495 -163.2622,-95.5119 -11.9369,-9.065 -17.4755,-15.0617 -23.826,-25.7966 -27.8106,-47.0107 -55.2271,-117.0581 -67.4475,-172.3241 -7.1972,-32.5487 -8.9402,-78.1893 -3.9304,-102.914 17.2968,-85.363 91.2014,-127.4337 222.8497,-126.8587 34.5883,0.1511 63.9254,2.0628 66.1748,4.3122 3.7831,3.7831 -36.6193,124.7239 -70.6379,211.4482 -15.7986,40.2758 -16.7803,43.6922 -16.7803,58.3951 0,37.7434 24.1984,66.237 70.0245,82.4535 34.5581,12.2292 101.4677,19.6924 150.0253,16.7341 l 20.6326,-1.257 -1.4765,6.9879 c -0.812,3.8433 -1.8685,30.012 -2.3477,58.1527 l -0.8713,51.1649 -7.4834,3.8392 c -13.5081,6.93 -52.1959,21.8477 -70.1885,27.064 -20.0042,5.7996 -45.7166,10.4732 -66.8179,12.1454 -13.7155,1.0869 -15.2282,0.736 -34.6373,-8.0349 z"
       id="path140" />
    <path
       style="fill:#bfb48d;fill-opacity:1;stroke:none;stroke-width:682.266;stroke-linecap:square;stroke-linejoin:round;stroke-opacity:0;paint-order:stroke fill markers"
       d="m -4108.5364,2267.5928 c 73.0259,-67.2352 158.1721,-160.4011 223.1157,-244.13 11.6221,-14.984 21.6635,-26.7112 22.3142,-26.0605 1.7062,1.7062 -34.9488,74.1137 -57.5816,113.7451 -20.1263,35.2425 -56.6827,94.3668 -77.3639,125.1242 l -12.0405,17.9068 -15.9563,5.2702 c -21.2964,7.0339 -96.6095,27.8996 -100.7018,27.8996 -1.7833,0 6.4131,-8.8899 18.2142,-19.7554 z"
       id="path144" />
    <path
       style="fill:#bfb48d;fill-opacity:1;stroke:none;stroke-width:682.266;stroke-linecap:square;stroke-linejoin:round;stroke-opacity:0;paint-order:stroke fill markers"
       d="m -3677.3103,2085.2482 c -28.4961,-27.0498 -82.4005,-72.1869 -121.3505,-101.6134 l -35.299,-26.6683 16.7786,-21.7664 c 9.2283,-11.9715 20.4673,-26.5479 24.9757,-32.392 l 8.197,-10.6255 22.2619,30.0591 c 24.3266,32.8468 49.8767,70.6598 67.8698,100.4442 14.408,23.85 39.1811,69.5058 41.0514,75.6562 2.7959,9.1943 -5.9089,4.5392 -24.4849,-13.0939 z"
       id="path146" />
    <path
       style="fill:#bfb48d;fill-opacity:1;stroke:#000000;stroke-width:682.266;stroke-linecap:square;stroke-linejoin:round;stroke-opacity:0;paint-order:stroke fill markers"
       d="m -3355.3901,1912.724 c -52.7988,-59.7723 -141.0753,-123.3669 -249.6984,-179.8831 -21.1287,-10.9932 -38.4093,-20.4951 -38.4013,-21.1154 0.022,-1.7091 173.7579,-225.5089 236.6273,-304.8142 l 55.3188,-69.7808 26.635,-1.2324 c 14.6493,-0.6778 62.3618,-1.4981 106.0278,-1.823 l 79.3928,-0.5906 v 18.5024 c 0,14.2862 7.3394,327.4499 10.7251,457.4701 l 0.5477,21.003 -29.7083,-0.065 c -21.1859,-0.046 -28.6797,-0.6637 -26.1228,-2.153 1.972,-1.1486 3.5855,-2.992 3.5855,-4.0965 0,-2.1421 -15.8772,5.7589 -19.4082,9.658 -4.4093,4.869 -135.8829,90.4108 -141.31,91.9416 -1.1908,0.3359 -7.5839,-5.5237 -14.2069,-13.0215 z"
       id="path148" />
    <path
       style="fill:#7d8596;fill-opacity:1;stroke:#000000;stroke-width:682.266;stroke-linecap:square;stroke-linejoin:round;stroke-opacity:0;paint-order:stroke fill markers"
       d="m -4740.8808,2337.514 c -126.9547,-113.797 -219.4725,-265.677 -276.569,-454.0236 l -10.2137,-33.6923 4.5395,-6.2619 c 12.797,-17.6527 29.9938,-36.2783 34.5724,-37.4448 2.8172,-0.7177 122.6747,-27.7248 266.3501,-60.0158 l 261.2279,-58.7108 1.1042,18.6115 c 3.12,52.5903 -5.6999,120.1204 -27.0773,207.3202 l -8.5916,35.0453 -52.3784,-1.0051 c -72.351,-1.3884 -112.3801,3.8814 -152.0215,20.0136 -44.6146,18.1561 -73.8999,49.2306 -87.8791,93.2483 -5.8242,18.3391 -7.8497,64.1225 -4.065,91.8833 7.0498,51.7115 31.0677,122.9143 60.4195,179.1183 6.2177,11.906 10.9677,21.9844 10.5556,22.3965 -0.4121,0.4121 -9.4002,-7.0051 -19.9736,-16.4827 z"
       id="path150" />
    <path
       style="fill:#7d8596;fill-opacity:1;stroke:none;stroke-width:241.217;stroke-linecap:square;stroke-linejoin:round;stroke-opacity:0;paint-order:stroke fill markers"
       d="m -4524.2793,2482.1188 c -41.342,-1.9841 -82.8153,-16.8736 -115.6388,-41.5157 -20.8825,-15.6776 -42.139,-37.4901 -58.1568,-59.6781 -2.5078,-3.4739 -4.3756,-6.5002 -4.1507,-6.7251 0.2249,-0.225 2.4609,1.2035 4.9688,3.1743 21.5466,16.932 58.2986,41.2863 87.501,57.9839 27.8002,15.8959 67.1791,35.2383 93.0824,45.721 l 3.6219,1.4658 -3.2597,-0.1001 c -1.7928,-0.055 -5.3785,-0.2018 -7.9681,-0.326 z"
       id="path152" />
    <path
       style="fill:#7d8596;fill-opacity:1;stroke:none;stroke-width:241.217;stroke-linecap:square;stroke-linejoin:round;stroke-opacity:0;paint-order:stroke fill markers"
       d="m -4347.0545,2427.7523 c -0.6771,-13.2758 -0.5567,-45.9008 0.2332,-63.2018 1.2253,-26.8366 2.3851,-42.356 3.2066,-42.9083 0.4355,-0.2927 2.4688,-0.5371 4.5185,-0.5432 2.0498,-0.01 10.0361,-0.5103 17.7473,-1.1204 54.8299,-4.3379 118.546,-13.3332 165.7773,-23.404 7.3705,-1.5716 13.4686,-2.7976 13.5513,-2.7245 0.083,0.073 -4.8069,4.3862 -10.8657,9.5847 -52.2348,44.8177 -102.513,81.6186 -150.4585,110.1275 -13.5296,8.0448 -41.7416,23.4258 -42.9679,23.4258 -0.1491,0 -0.483,-4.1561 -0.7421,-9.2358 z"
       id="path154" />
    <path
       style="fill:#7d8596;fill-opacity:1;stroke:none;stroke-width:482.435;stroke-linecap:square;stroke-linejoin:round;stroke-opacity:0;paint-order:stroke fill markers"
       d="m -3993.7917,2235.4565 c 49.9469,-74.721 100.1932,-162.0984 128.5064,-223.4702 16.0027,-34.6875 19.3013,-41.0384 24.3203,-46.8236 l 4.8011,-5.534 20.1977,14.7984 c 27.1889,19.9207 63.448,48.9464 94.197,75.4055 29.4684,25.3572 61.4592,54.6214 61.4592,56.221 0,1.1109 -18.3445,10.1412 -80.3003,39.5285 -57.3519,27.2036 -119.1694,53.8494 -173.2315,74.6697 -29.2966,11.2826 -87.8237,32.2275 -90.0546,32.2275 -0.7008,0 3.8464,-7.6603 10.1047,-17.0228 z"
       id="path156" />
    <path
       style="fill:#7d8596;fill-opacity:1;stroke:none;stroke-width:482.435;stroke-linecap:square;stroke-linejoin:round;stroke-opacity:0;paint-order:stroke fill markers"
       d="m -3659.6008,2077.4238 c -25.5019,-49.8165 -64.025,-109.9062 -107.8953,-168.299 -6.8844,-9.1634 -12.9639,-17.4112 -13.5101,-18.3284 -0.8119,-1.3634 123.1789,-163.9629 132.1842,-173.3443 2.4028,-2.5031 3.9288,-1.8711 37.1605,15.3906 84.0547,43.6608 140.2257,79.8122 195.4664,125.8012 16.2508,13.529 50.2469,46.2462 63.111,60.7367 l 8.4617,9.5315 -19.85,12.1061 c -86.7391,52.9001 -204.3398,119.308 -266.1533,150.294 l -17.4002,8.7224 z"
       id="path158" />
    <path
       style="fill:#7c8754;fill-opacity:1;stroke:#000000;stroke-width:482.435;stroke-linecap:square;stroke-linejoin:round;stroke-opacity:0;paint-order:stroke fill markers"
       d="m -4579.8596,2631.0003 v -59.4452 l -22.8179,-11.9152 c -98.7455,-51.5635 -197.8041,-116.4802 -270.5522,-177.3028 -132.6103,-110.8714 -205.466,-221.2966 -216.5616,-328.2355 -5.1377,-49.5168 4.2332,-99.1043 28.0624,-148.4972 9.131,-18.9268 22.9319,-42.4746 29.0878,-49.6312 l 3.3068,-3.8445 1.0694,5.0066 c 2.0893,9.7814 18.1458,60.4301 26.7733,84.4539 63.2638,176.1622 155.6269,313.799 279.8296,416.9939 6.7841,5.6367 15.196,14.7594 21.8174,23.6611 15.6998,21.1066 30.0615,36.8608 45.1289,49.5045 39.1623,32.8629 78.9711,48.8973 130.1939,52.4402 16.7433,1.1581 19.1126,1.7259 39.0686,9.3634 40.0724,15.3365 100.6895,32.3479 145.3824,40.7996 15.0247,2.8412 22.9455,5.1641 30.6421,8.9863 10.2788,5.1045 10.5109,5.1456 23.9044,4.2374 7.4386,-0.5044 14.5027,-0.9628 15.6979,-1.0187 1.1953,-0.056 15.5379,1.2426 31.8726,2.8855 47.6658,4.794 75.369,6.0239 135.4584,6.0134 164.4833,-0.029 283.7817,-20.4015 369.9829,-63.1827 74.9212,-37.1831 118.5961,-90.3088 131.5458,-160.0108 3.6196,-19.483 3.6058,-67.117 -0.026,-88.8483 -5.1442,-30.7825 -16.1717,-69.918 -27.8964,-99.0011 -2.7648,-6.8582 -4.7834,-12.7131 -4.4855,-13.0109 1.7172,-1.7172 93.8967,94.681 138.7339,145.0833 39.623,44.5407 110.8756,129.9877 133.6721,160.3011 l 3.9741,5.2845 -11.8877,14.998 c -28.6158,36.1025 -79.8966,89.5797 -107.462,112.0645 -10.456,8.5289 -12.4487,10.8323 -12.5338,14.4875 -0.055,2.3905 1.6426,23.0911 3.774,46.0014 2.1313,22.9103 3.6049,41.9194 3.2749,42.2424 -0.3302,0.3229 -231.3866,4.2164 -513.4589,8.652 -282.0722,4.4357 -528.9941,8.4843 -548.7153,8.9968 l -35.8566,0.932 v -59.4452 z"
       id="path160" />
    <path
       style="fill:#7c8754;fill-opacity:1;stroke:none;stroke-width:482.435;stroke-linecap:square;stroke-linejoin:round;stroke-opacity:0;paint-order:stroke fill markers"
       d="m -4318.378,1983.3546 c -49.0759,-12.8928 -109.8977,-24.8759 -156.2499,-30.7841 -9.4432,-1.2037 -17.4023,-2.4212 -17.6867,-2.7057 -0.2845,-0.2844 2.9905,-14.5068 7.2778,-31.6051 20.9057,-83.3751 29.0125,-140.981 28.087,-199.5806 -0.4369,-27.6632 -0.2026,-32.2865 1.6646,-32.8411 1.1952,-0.3551 21.3085,-4.9349 44.6962,-10.1774 l 42.523,-9.5318 6.0102,4.8664 c 46.3611,37.539 130.8154,106.4644 152.0068,124.0568 l 27.1988,22.5796 -18.858,1.706 c -26.5247,2.3997 -52.9148,8.3073 -56.361,12.6168 -1.5131,1.8922 -17.5858,69.7379 -27.839,117.5137 -3.9331,18.3267 -7.4818,34.7882 -7.8859,36.581 -0.4041,1.7929 -1.2112,3.2046 -1.7936,3.1372 -0.5825,-0.067 -10.8381,-2.6917 -22.7903,-5.8317 z"
       id="path162" />
    <path
       style="fill:#7c8754;fill-opacity:1;stroke:#000000;stroke-width:964.87;stroke-linecap:square;stroke-linejoin:round;stroke-opacity:0;paint-order:stroke fill markers"
       d="m -3797.3346,1869.3685 -12.0581,-15.6295 3.3075,-17.132 c 1.8192,-9.4226 3.3243,-31.4746 3.3447,-49.0045 0.064,-54.6723 -12.4867,-88.7569 -44.5356,-120.9511 -32.507,-32.6545 -78.4078,-50.7617 -145.6494,-57.4567 -17.7947,-1.7717 -32.8931,-3.7487 -33.552,-4.3933 -0.6589,-0.6446 -1.3108,-6.6524 -1.4487,-13.3506 -0.209,-10.1506 0.9554,-12.8297 6.993,-16.0889 20.4529,-11.0407 90.6033,9.1597 201.3767,57.9882 66.3899,29.2644 166.6066,77.8186 166.6066,80.7196 0,2.4252 -118.255,156.3977 -127.2568,165.6932 -4.8665,5.0252 -5.5534,4.6084 -17.1279,-10.3944 z"
       id="path164" />
    <path
       style="fill:#a1946b;fill-opacity:1;stroke:none;stroke-width:482.435;stroke-linecap:square;stroke-linejoin:round;stroke-opacity:0;paint-order:stroke fill markers"
       d="m -4294.3334,2539.907 c -17.9113,-2.8589 -20.3211,-3.5975 -24.3706,-7.4694 -6.4689,-6.1854 -15.3485,-25.2069 -19.534,-41.8447 -3.1725,-12.6115 -8.7906,-49.9535 -7.6349,-50.7479 0.2351,-0.1617 10.8585,-6.0384 23.6075,-13.0594 52.3852,-28.8491 109.0519,-68.9126 165.7653,-117.1966 l 19.4413,-16.5517 21.8482,-5.344 c 23.0712,-5.6433 79.8536,-21.7747 93.9237,-26.683 4.5816,-1.5983 8.3303,-2.6612 8.3303,-2.362 0,0.8358 -27.7418,41.0596 -43.981,63.7695 -73.868,103.3018 -135.9022,172.9156 -181.5184,203.6971 -11.3542,7.6617 -30.6636,17.347 -34.0947,17.1012 -1.0482,-0.075 -10.8504,-1.5641 -21.7827,-3.3091 z"
       id="path166" />
    <path
       style="fill:#a1946b;fill-opacity:1;stroke:none;stroke-width:482.435;stroke-linecap:square;stroke-linejoin:round;stroke-opacity:0;paint-order:stroke fill markers"
       d="m -4342.7193,2307.7993 c 3.6421,-41.9611 12.6422,-109.0769 22.7127,-169.3732 8.7979,-52.6768 26.157,-143.3503 27.7487,-144.9419 0.7968,-0.7968 39.3718,10.6026 73.5784,21.7434 62.8792,20.4793 115.6838,31.2947 154.127,31.5682 38.5437,0.2742 54.5113,-8.6705 54.4853,-30.5215 -0.041,-34.2561 -48.9935,-93.5415 -152.4664,-184.6481 l -12.6698,-11.1556 9.0479,0.7924 c 35.0274,3.0676 59.7202,7.5524 91.3173,16.5856 64.262,18.3716 137.1736,53.9898 210.4447,102.8049 11.1191,7.4079 20.4087,13.6225 20.6435,13.8103 0.2348,0.1878 -1.242,4.5103 -3.2818,9.6056 -6.9268,17.3027 -78.3562,107.0706 -138.1613,173.6323 -39.5848,44.0569 -129.1036,133.2084 -151.2469,150.6264 -9.3403,7.3471 -129.9713,26.2784 -190.7546,29.9361 l -16.5193,0.9941 z"
       id="path168" />
    <path
       style="fill:#a1946b;fill-opacity:1;stroke:none;stroke-width:482.435;stroke-linecap:square;stroke-linejoin:round;stroke-opacity:0;paint-order:stroke fill markers"
       d="m -3816.7883,1846.9039 c -6.1292,-8.0555 -40.7814,-47.8648 -58.3589,-67.0442 -8.3981,-9.1634 -31.6123,-32.9592 -51.5872,-52.8795 -49.9095,-49.7734 -80.9645,-85.9384 -94.0383,-109.5123 l -4.1942,-7.5627 17.233,1.0039 c 44.9658,2.6197 86.6007,12.6184 117.4079,28.1958 60.9688,30.8284 90.0489,88.153 84.4651,166.5033 -1.2177,17.0859 -5.0464,45.0507 -6.346,46.3502 -0.2297,0.2298 -2.2913,-2.0447 -4.5814,-5.0545 z"
       id="path172" />
    <path
       style="fill:#a1946b;fill-opacity:1;stroke:#000000;stroke-width:482.435;stroke-linecap:square;stroke-linejoin:round;stroke-opacity:0;paint-order:stroke fill markers"
       d="m -5161.15,2356.5785 c 0.4605,-188.5099 1.2288,-383.3284 1.7073,-432.9301 l 0.87,-90.1849 22.644,0 c 22.1988,0 23.3645,-0.1571 59.2942,-8.1404 20.1576,-4.4789 36.9388,-7.8548 37.2917,-7.5019 0.3528,0.3528 2.371,7.2409 4.4849,15.3068 l 3.8434,14.6652 -10.2025,15.6515 c -63.799,97.8728 -69.2051,198.6858 -16.3772,305.4022 37.1857,75.1183 101.5272,149.8029 193.3949,224.484 73.1603,59.4735 174.2348,124.8668 262.6699,169.9425 l 19.1793,9.7757 0.017,58.1552 0.017,58.1553 -26.4398,0.8807 c -14.5418,0.4844 -136.2914,2.5021 -270.5547,4.4838 -134.2632,1.9817 -252.7912,3.8267 -263.3956,4.0998 l -19.2808,0.4967 z"
       id="path174" />
    <path
       style="fill:#3b6958;fill-opacity:1;stroke:#000000;stroke-width:482.435;stroke-linecap:square;stroke-linejoin:round;stroke-opacity:0;paint-order:stroke fill markers"
       d="m -5040.737,1798.4878 c -20.5134,-87.5433 -33.2483,-180.4787 -37.1032,-270.7692 -0.9998,-23.4183 0.8255,-168.0241 2.1421,-169.7035 0.3166,-0.4038 298.9634,-4.6035 326.6702,-4.5938 l 13.7632,0.01 63.0208,57.2454 c 34.6614,31.4849 65.8685,60.1553 69.3492,63.7119 3.4806,3.5566 10.2428,9.5635 15.027,13.3488 9.6216,7.6126 167.2886,135.4211 197.9398,160.4546 10.652,8.6997 18.8012,15.9811 18.1094,16.1808 -2.0463,0.5909 -85.9321,19.3092 -86.5337,19.3092 -0.3029,0 -0.9825,-3.8168 -1.5103,-8.4818 -0.5278,-4.6649 -2.5477,-14.4158 -4.4887,-21.6686 -9.835,-36.7502 -27.2923,-60.6505 -54.1169,-74.0898 -60.5974,-30.3597 -166.8537,1.9046 -314.1729,95.3973 -62.0221,39.361 -103.0906,71.0654 -143.3467,110.6621 l -19.0636,18.7515 -17.8796,4.1254 c -9.8337,2.269 -19.292,4.4766 -21.0184,4.9059 -2.9205,0.7261 -3.3929,-0.3033 -6.7877,-14.791 z"
       id="path176" />
    <path
       style="fill:#3b6958;fill-opacity:1;stroke:none;stroke-width:482.435;stroke-linecap:square;stroke-linejoin:round;stroke-opacity:0;paint-order:stroke fill markers"
       d="m -4420.1608,2320.116 c -18.689,-0.901 -50.3183,-4.9923 -66.585,-8.613 -62.9485,-14.0111 -97.1475,-44.7681 -97.1161,-87.342 0.011,-14.2294 0.488,-15.8179 18.1043,-60.2225 24.1044,-60.7589 45.2935,-121.7499 63.5976,-183.0601 4.3669,-14.6271 8.2932,-26.9481 8.7251,-27.38 2.0627,-2.0627 73.5658,9.3282 116.6152,18.5776 32.0561,6.8875 78.6082,18.5724 80.2808,20.1511 0.6612,0.6242 -2.0802,17.6746 -6.0922,37.8899 -19.2205,96.8474 -31.8889,176.3296 -39.2251,246.0999 -1.6338,15.5379 -3.331,31.5764 -3.7717,35.6412 l -0.8012,7.3906 -15.3599,0.9398 c -14.8012,0.9056 -38.699,0.8759 -58.3718,-0.072 z"
       id="path178" />
    <path
       style="fill:#3b6958;fill-opacity:1;stroke:none;stroke-width:482.435;stroke-linecap:square;stroke-linejoin:round;stroke-opacity:0;paint-order:stroke fill markers"
       d="m -4137.6539,2553.3953 c -27.9696,-0.6091 -71.7349,-3.3866 -99.964,-6.3441 -14.7411,-1.5443 -27.0404,-2.8095 -27.3319,-2.8114 -0.2915,0 4.838,-2.6903 11.3988,-5.9741 52.5866,-26.3204 136.5592,-121.2921 234.7964,-265.5511 10.6487,-15.6373 10.8693,-15.8489 19.46,-18.6591 83.8736,-27.4377 210.7775,-80.714 308.3303,-129.442 l 33.0706,-16.5189 5.3213,4.2452 c 10.2307,8.1618 13.0344,12.5424 20.9707,32.7649 13.7009,34.9113 22.5831,66.1705 28.064,98.7654 3.704,22.028 3.6993,69.7234 -0.01,88.0713 -14.2825,70.6713 -57.7651,122.6264 -133.467,159.473 -63.1402,30.7323 -143.4722,49.2842 -250.6945,57.8954 -25.7903,2.0713 -114.6801,5.3738 -127.4903,4.7366 -3.1873,-0.1585 -13.2923,-0.4515 -22.4557,-0.6511 z"
       id="path180" />
    <path
       style="fill:#3b6958;fill-opacity:1;stroke:none;stroke-width:482.435;stroke-linecap:square;stroke-linejoin:round;stroke-opacity:0;paint-order:stroke fill markers"
       d="m -4330.3381,2533.8832 c -57.0576,-11.8176 -94.0986,-21.7596 -136.9072,-36.7467 -15.1395,-5.3003 -28.6599,-9.984 -30.0454,-10.4083 -4.4747,-1.3704 -1.1188,-3.3396 5.6914,-3.3396 15.4402,0 50.459,-7.2011 78.1432,-16.0692 15.2202,-4.8754 44.2939,-16.6127 56.847,-22.9495 l 8.4714,-4.2763 0.9264,11.8684 c 2.3632,30.2718 10.2816,59.0124 20.4271,74.142 3.4815,5.1918 5.573,9.3699 4.6477,9.2846 -0.9252,-0.085 -4.616,-0.7628 -8.2016,-1.5054 z"
       id="path182" />
    <path
       style="fill:#3b6958;fill-opacity:1;stroke:none;stroke-width:30.1522;stroke-linecap:square;stroke-linejoin:round;stroke-opacity:0;paint-order:stroke fill markers"
       d="m -4292.1599,2546.857 c -6.4175,-0.5659 -11.6679,-2.1358 -16.6236,-4.9705 -1.8942,-1.0836 -5.0741,-3.3008 -4.5644,-3.1825 0.1245,0.029 2.5489,0.4387 5.3876,0.9107 10.0832,1.6768 20.0113,3.1918 29.1109,4.4423 2.3655,0.3251 4.4436,0.6181 4.6179,0.6512 0.2731,0.052 0.098,0.1148 -1.2677,0.4556 -2.7965,0.6979 -5.616,1.2049 -8.5114,1.5306 -1.2476,0.1403 -7.0817,0.2567 -8.1493,0.1626 z"
       id="path184" />
    <path
       style="fill:#3b6958;fill-opacity:1;stroke:#000000;stroke-width:682.266;stroke-linecap:square;stroke-linejoin:round;stroke-opacity:0;paint-order:stroke fill markers"
       d="m -3246.4748,2621.0825 -6.7281,-47.5987 -18.8419,-25.7528 c -10.3631,-14.164 -32.7018,-43.7402 -49.6416,-65.7247 l -30.7997,-39.972 17.7582,-26.4584 c 58.5245,-87.1974 85.9993,-167.1192 85.9811,-250.1116 -0.012,-55.4359 -10.2783,-99.549 -34.8076,-149.5658 -12.2676,-25.0144 -32.8438,-57.5348 -47.415,-74.9385 -4.4359,-5.2981 -8.0652,-10.0949 -8.0652,-10.6595 0,-0.5647 14.9822,-10.5297 33.2937,-22.1446 18.3116,-11.6149 51.0247,-32.922 72.6959,-47.3492 l 39.4021,-26.2312 h 32.8197 c 18.0509,0 32.8232,0.6915 32.8273,1.5367 0,0.8451 4.6011,187.7128 10.2156,415.2616 5.6144,227.5487 9.9904,413.8962 9.7245,414.1056 -0.266,0.2095 -30.0052,1.0156 -66.0872,1.7913 l -65.6037,1.4105 z"
       id="path186" />
    <path
       style="fill:#3b6958;fill-opacity:1;stroke:#000000;stroke-width:1364.53;stroke-linecap:square;stroke-linejoin:round;stroke-opacity:0;paint-order:stroke fill markers"
       d="m -3877.7063,1926.8116 c -95.2525,-60.7685 -177.8806,-93.9866 -265.7221,-106.8256 l -34.715,-5.0739 -90.4016,-73.5272 c -49.7209,-40.44 -89.8696,-74.0592 -89.2195,-74.7094 2.2051,-2.2051 160.2504,-38.2428 195.2868,-44.5295 19.1567,-3.4374 56.9579,-7.3069 84.0027,-8.5989 l 49.1723,-2.3491 11.0066,17.8697 c 12.0802,19.6129 87.8761,105.9393 93.0162,105.9393 2.8743,0 72.3043,75.5702 100.8531,109.7722 l 11.2489,13.4764 -13.1691,41.8425 c -7.243,23.0133 -14.3901,43.1414 -15.8824,44.729 -1.4924,1.5876 -17.457,-6.5194 -35.4769,-18.0155 z"
       id="path188" />
    <path
       style="fill:#5b6e5b;fill-opacity:1;stroke:none;stroke-width:85.2832;stroke-linecap:square;stroke-linejoin:round;stroke-opacity:0;paint-order:stroke fill markers"
       d="m -5031.1688,1839.6439 c -3.6054,-13.5815 -6.0678,-23.5735 -5.8557,-23.7616 0.2515,-0.2231 40.7873,-9.3212 40.9234,-9.1851 0.052,0.052 -1.3479,1.7079 -3.1118,3.6789 -9.9356,11.1023 -19.9452,23.2678 -26.9709,32.7796 -1.4565,1.9721 -2.726,3.6763 -2.821,3.7872 -0.095,0.111 -1.0688,-3.1736 -2.164,-7.299 z"
       id="path190" />
    <path
       style="fill:#5b6e5b;fill-opacity:1;stroke:#000000;stroke-width:682.266;stroke-linecap:square;stroke-linejoin:round;stroke-opacity:0;paint-order:stroke fill markers"
       d="m -5158.5689,1652.7504 v -178.5658 l 26.1228,1.3323 c 14.3675,0.7328 31.7444,1.336 38.6154,1.3406 l 12.4926,0.01 1.2642,47.6357 c 1.96,73.8547 11.4615,153.49 28.0511,235.1051 4.4665,21.9739 9.0426,43.1184 10.1689,46.9878 1.1264,3.8694 1.8333,7.2241 1.5708,7.4548 -0.2624,0.2308 -17.5338,4.2167 -38.3808,8.8576 -30.9275,6.885 -41.7689,8.4354 -58.9044,8.4238 l -21.0006,-0.014 z"
       id="path192" />
    <path
       style="fill:#5b6e5b;fill-opacity:1;stroke:#000000;stroke-width:682.266;stroke-linecap:square;stroke-linejoin:round;stroke-opacity:0;paint-order:stroke fill markers"
       d="m -3698.7658,1685.6858 c -123.6522,-61.3451 -223.868,-102.1694 -278.5154,-113.4572 -28.2278,-5.8306 -48.9817,-3.086 -54.4899,7.2061 -2.4049,4.4937 -1.8234,17.8777 1.085,24.9718 1.3512,3.2956 -0.4942,3.5861 -22.8231,3.5925 -44.8484,0.012 -111.5878,8.4334 -163.6147,20.6432 -14.6493,3.4379 -54.2898,12.5662 -88.09,20.2851 l -61.455,14.0342 -13.3279,-10.8174 c -177.72,-144.244 -212.4477,-173.3218 -277.1641,-232.0722 -39.1845,-35.5722 -70.8022,-65.1191 -70.2615,-65.6597 0.9483,-0.9483 1370.281,-18.9161 1371.3318,-17.9941 0.2848,0.2499 -26.6275,34.6257 -59.805,76.3908 -33.1776,41.765 -98.725,125.586 -145.6611,186.2687 -46.936,60.6828 -85.9454,110.4832 -86.6875,110.6677 -0.7421,0.1844 -23.4768,-10.6423 -50.5216,-24.0595 z"
       id="path194" />
    <path
       style="fill:#5b6e5b;fill-opacity:1;stroke:none;stroke-width:682.266;stroke-linecap:square;stroke-linejoin:round;stroke-opacity:0;paint-order:stroke fill markers"
       d="m -3377.0968,2411.6233 c -68.4628,-86.7192 -160.9466,-190.9182 -230.4686,-259.6625 -18.3265,-18.1215 -30.8904,-32.3426 -34.1193,-38.6196 -2.811,-5.4647 -4.8185,-10.1554 -4.461,-10.4237 0.3575,-0.2684 16.3236,-8.6135 35.4803,-18.5446 68.6702,-35.5998 169.2046,-92.5823 239.3472,-135.661 24.2165,-14.8728 28.6659,-16.9472 30.7327,-14.3285 41.4351,52.5001 63.7079,93.9588 77.8135,144.8433 28.985,104.56 3.6075,217.7672 -74.9788,334.4742 -8.9158,13.2407 -16.8061,24.0291 -17.5341,23.9742 -0.7279,-0.055 -10.5433,-11.7782 -21.8119,-26.0518 z"
       id="path196" />
    <path
       style="fill:#5b6e5b;fill-opacity:1;stroke:#000000;stroke-width:682.266;stroke-linecap:square;stroke-linejoin:round;stroke-opacity:0;paint-order:stroke fill markers"
       d="m -3478.5196,2670.047 c 0,-0.9773 -1.8858,-21.1345 -4.1848,-44.7938 l -4.18,-43.0168 10.8436,-9.0243 c 20.0092,-16.6522 84.5311,-82.9741 101.8627,-104.7045 9.437,-11.8321 17.8516,-21.79 18.6991,-22.1287 1.5324,-0.6124 51.7738,64.1172 83.1716,107.1558 l 16.4415,22.5373 6.4715,45.9411 c 3.5593,25.2676 6.2468,46.1375 5.972,46.3777 -1.6765,1.466 -235.0932,3.1103 -235.0972,1.6562 z"
       id="path198" />
    <path
       style="fill:#5b6e5b;fill-opacity:1;stroke:none;stroke-width:682.266;stroke-linecap:square;stroke-linejoin:round;stroke-opacity:0;paint-order:stroke fill markers"
       d="m -4103.413,2041.1668 c -29.1986,-4.596 -80.068,-17.6302 -126.004,-32.2859 -22.5373,-7.1905 -45.7927,-14.2948 -51.6787,-15.7874 -9.1661,-2.3244 -10.5673,-3.3218 -9.7649,-6.9504 12.5637,-56.8097 24.4402,-109.7573 28.8759,-128.7338 l 5.6341,-24.1037 12.9698,-4.006 c 13.5763,-4.1933 40.6239,-8.2276 55.1612,-8.2276 7.7749,0 10.2986,1.5502 28.7376,17.6518 58.7055,51.2636 103.4068,97.5696 126.1259,130.6538 14.276,20.789 20.0924,34.3731 20.0924,46.9254 0,10.7947 -3.893,16.5972 -14.9895,22.3416 -11.1808,5.7881 -46.8142,6.9839 -75.1598,2.5222 z"
       id="path200" />
    <path
       style="fill:#5b6e5b;fill-opacity:1;stroke:none;stroke-width:682.266;stroke-linecap:square;stroke-linejoin:round;stroke-opacity:0;paint-order:stroke fill markers"
       d="m -3839.1117,1953.4671 c 0,-0.429 3.2111,-9.651 7.1358,-20.4933 6.4974,-17.9493 13.5423,-41.2088 19.4985,-64.3768 l 2.2671,-8.8183 11.9517,14.9206 11.9516,14.9206 -14.3422,18.4839 c -7.8882,10.1661 -19.0778,24.6765 -24.8658,32.2452 -9.0334,11.8129 -13.5967,16.2155 -13.5967,13.1181 z"
       id="path202" />
    <path
       style="fill:none;stroke:none;stroke-width:5;stroke-linecap:butt;stroke-linejoin:miter;stroke-opacity:1;stroke-miterlimit:4;stroke-dasharray:none"
       d="m -536.03874,715.68415 c 0,0 2228.18264,240.49305 2349.87794,382.47085 121.6953,141.9779 1069.1799,-26.0775 1069.1799,-26.0775"
       id="path1027" />
    <path
       style="fill:none;stroke:none;stroke-width:5;stroke-linecap:butt;stroke-linejoin:miter;stroke-opacity:1;stroke-miterlimit:4;stroke-dasharray:none"
       d="m -229.52508,1235.6337 c 0,0 2703.99578,-363.48419 2625.76308,-635.84982"
       id="path1029"
       sodipodi:nodetypes="cc" />
    <path
       style="fill:none;stroke:none;stroke-width:5;stroke-linecap:butt;stroke-linejoin:miter;stroke-opacity:1;stroke-miterlimit:4;stroke-dasharray:none"
       d="m -556.32128,434.626 c 0,0 2089.10228,385.36839 2364.36548,254.98059 275.2631,-130.3878 263.6731,-159.36287 263.6731,-159.36287"
       id="path1031" />
    <path
       style="fill:none;stroke:none;stroke-width:5;stroke-linecap:butt;stroke-linejoin:miter;stroke-opacity:1;stroke-miterlimit:4;stroke-dasharray:none"
       d="m 797.42692,671.08168 c 14.48753,-8.69252 755.63668,-540.69388 848.35688,-476.94873 92.7202,63.74514 654.8365,179.64541 654.8365,179.64541"
       id="path1033"
       sodipodi:nodetypes="csc" />
    <path
       style="fill:none;stroke:none;stroke-width:5;stroke-linecap:butt;stroke-linejoin:miter;stroke-opacity:1;stroke-miterlimit:4;stroke-dasharray:none"
       d="m -469.39608,449.11354 c 43.4626,0 1043.1024,-379.57338 1043.1024,-379.57338 0,0 231.80053,-75.3351732 709.88908,301.3407"
       id="path1035"
       sodipodi:nodetypes="ccc" />
    <path
       style="fill:none;stroke:none;stroke-width:5;stroke-linecap:butt;stroke-linejoin:miter;stroke-opacity:1;stroke-miterlimit:4;stroke-dasharray:none"
       d="m -229.52508,155.54281 c 0,0 2703.99578,-363.48419 2625.76308,-635.84982"
       id="path1094"
       sodipodi:nodetypes="cc" />
    <path
       style="fill:none;stroke:none;stroke-width:5;stroke-linecap:butt;stroke-linejoin:miter;stroke-miterlimit:4;stroke-dasharray:none;stroke-opacity:1"
       d="m -535.31436,-364.43087 c 0,0 2228.18266,240.49305 2349.87796,382.47085 121.6953,141.9779 1069.1799,-26.0775002 1069.1799,-26.0775002"
       id="path1096" />
    <path
       style="fill:none;stroke:none;stroke-width:5;stroke-linecap:butt;stroke-linejoin:miter;stroke-opacity:1;stroke-miterlimit:4;stroke-dasharray:none"
       d="M -81.130187,-312.93072 -52.15512,1344.4431 2659.9111,1118.4376 2071.7173,530.24372 l 43.4626,-941.68967 z"
       id="path1098" />
    <path
       style="fill:#7c8754;fill-opacity:0.90196079;stroke:none;stroke-width:28.9751;stroke-linecap:square;stroke-linejoin:round;stroke-miterlimit:4;stroke-dasharray:none;stroke-opacity:0;paint-order:stroke fill markers"
       d="M 1169.0567,934.81777 C 913.8938,891.40606 456.32059,827.43622 50.619125,778.45752 -6.7515074,771.53139 -53.98953,765.48302 -54.354259,765.0167 c -0.364729,-0.46631 -2.425665,-54.60095 -4.579858,-120.29918 l -3.916715,-119.45133 45.144952,7.85686 c 144.50514,25.14912 699.77858,107.45158 781.29222,115.8029 33.33031,3.41479 37.35089,5.12977 34.33122,14.64397 -4.11776,12.97395 2.13836,13.74152 18.51414,2.27152 10.63298,-7.44764 19.97675,-7.47604 75.17582,-0.2285 86.7765,11.3936 316.70698,35.43207 425.22198,44.45556 123.2349,10.2475 397.6823,10.18881 443.3186,-0.0948 58.4091,-13.16183 259.8072,-117.43326 298.6329,-154.61357 l 14.6773,-14.05529 91.4997,91.63399 91.4998,91.634 -33.7394,13.22577 c -68.3498,26.79299 -204.3934,70.98803 -296.8866,96.44638 -175.0145,48.17197 -505.6406,123.24697 -559.7446,127.10075 -17.3407,1.23515 -96.4547,-9.41668 -197.0305,-26.52796 z"
       id="path1102" />
    <path
       style="fill:#5b6e5b;fill-opacity:1;stroke:none;stroke-width:28.9751;stroke-linecap:square;stroke-linejoin:round;stroke-miterlimit:4;stroke-dasharray:none;stroke-opacity:0;paint-order:stroke fill markers"
       d="m -53.130646,993.145 c -2.284528,-115.46126 -2.827127,-211.25613 -1.205774,-212.87748 5.372701,-5.3727 552.55077,64.09597 881.48733,111.91194 184.90489,26.87874 490.07769,76.17973 493.64719,79.7492 9.7968,9.79687 -1130.86988,203.77974 -1337.362056,227.43304 l -32.413001,3.7129 z"
       id="path1104" />
    <path
       style="fill:#5b6e5b;fill-opacity:1;stroke:none;stroke-width:10.2442;stroke-linecap:square;stroke-linejoin:round;stroke-miterlimit:4;stroke-dasharray:none;stroke-opacity:0;paint-order:stroke fill markers"
       d="m 2031.4086,1150.2785 c -109.8202,-4.2902 -179.4742,-21.4053 -211.9229,-52.0729 -13.9591,-13.1929 -22.7151,-18.7374 -45.2074,-28.6263 -54.418,-23.9253 -163.0832,-52.1658 -320.4704,-83.28576 -39.3445,-7.77953 -71.8179,-14.427 -72.163,-14.77213 -0.3451,-0.34514 9.7183,-2.72814 22.3632,-5.29555 112.5902,-22.86033 259.1697,-55.65081 367.1969,-82.14358 215.9284,-52.95461 371.2441,-101.04373 484.1113,-149.8914 l 10.8277,-4.68611 187.4014,187.39294 c 166.3409,166.33339 186.8829,187.55759 182.7883,188.85749 -6.5147,2.0683 -144.3856,19.014 -204.3756,25.1198 -110.6009,11.257 -182.842,16.3894 -274.5455,19.505 -63.4637,2.1562 -68.3122,2.1523 -126.004,-0.1014 z"
       id="path1106" />
    <path
       style="fill:#7d8596;fill-opacity:1;stroke:none;stroke-width:28.9751;stroke-linecap:square;stroke-linejoin:round;stroke-miterlimit:4;stroke-dasharray:none;stroke-opacity:0;paint-order:stroke fill markers"
       d="m -47.881919,1277.2621 0.01756,-61.7468 189.769129,-28.1773 c 355.90831,-52.846 812.63333,-130.3898 1085.09873,-184.2306 137.3504,-27.14133 138.027,-27.13283 281.0581,3.5281 182.4658,39.1144 269.3913,67.7547 307.6835,101.3756 27.0863,23.7821 84.034,39.8519 169.9057,47.9448 l 72.9371,6.8739 -1019.9224,85.1012 C 477.70824,1294.7366 3.7485813,1334.377 -14.578148,1336.0206 l -33.321327,2.9884 z"
       id="path1108" />
    <path
       style="fill:#bfb48d;fill-opacity:1;stroke:none;stroke-width:28.9751;stroke-linecap:square;stroke-linejoin:round;stroke-miterlimit:4;stroke-dasharray:none;stroke-opacity:0;paint-order:stroke fill markers"
       d="M 1462.7474,707.20246 C 1324.9886,701.89853 1012.6808,672.6072 869.16253,651.53018 l -28.57106,-4.19593 156.06135,-104.8982 C 1216.15,394.89886 1265.3984,364.6202 1274.1107,371.85078 c 8.5195,7.07056 15.1509,2.14611 11.1501,-8.27995 -4.1251,-10.74988 166.9938,-109.12464 247.9224,-142.5283 72.9346,-30.10417 86.3816,-31.35064 128.1713,-11.88088 51.0461,23.78233 162.3239,58.07864 293.969,90.60256 62.1515,15.35501 114.713,29.43666 116.8033,31.29257 2.0902,1.8559 1.5637,47.70622 -1.1701,101.88959 l -4.9705,98.51523 -21.6996,18.98321 c -41.7253,36.50198 -228.6295,135.0038 -278.5001,146.77444 -40.8075,9.63156 -187.0453,14.44916 -303.0391,9.98321 z"
       id="path1110" />
    <path
       style="fill:#a1946b;fill-opacity:1;stroke:none;stroke-width:28.9751;stroke-linecap:square;stroke-linejoin:round;stroke-miterlimit:4;stroke-dasharray:none;stroke-opacity:0;paint-order:stroke fill markers"
       d="M 755.75575,637.84972 C 509.17939,603.91398 362.37841,581.98451 -1.9422417,524.66304 l -59.3988873,-9.34571 v -73.69799 c 0,-40.53389 -1.585654,-85.26659 -3.523675,-99.406 L -68.38848,316.50532 259.86189,193.63167 c 327,-122.405589 328.42708,-122.873634 374.64886,-122.873634 142.16321,0 340.9266,84.532284 548.97625,233.474694 36.0485,25.80712 66.6728,48.75022 68.0537,50.98467 1.381,2.23445 -38.5444,30.20914 -88.7229,62.16599 -50.1786,31.95684 -146.8203,96.12331 -214.75939,142.59215 -88.87447,60.78825 -127.88894,84.28817 -139.08033,83.77355 -8.55512,-0.39339 -32.50515,-3.04811 -53.22233,-5.89937 z"
       id="path1112" />
    <path
       style="fill:#a1946b;fill-opacity:1;stroke:none;stroke-width:28.9751;stroke-linecap:square;stroke-linejoin:round;stroke-miterlimit:4;stroke-dasharray:none;stroke-opacity:0;paint-order:stroke fill markers"
       d="m -119.29126,505.50937 c -11.1554,-2.478 -87.32079,-15.88785 -169.25642,-29.79967 -81.93563,-13.91182 -147.12954,-26.78748 -144.87534,-28.61256 2.2542,-1.82509 26.26447,-10.71748 53.35616,-19.76086 27.09168,-9.04339 106.08899,-36.90631 175.54958,-61.9176 69.46057,-25.01129 127.483145,-45.47507 128.939044,-45.47507 1.455892,0 2.647081,43.02797 2.647081,95.61772 0,107.63605 3.417522,101.00536 -46.360105,89.94804 z"
       id="path1114" />
    <path
       style="fill:#7d8596;fill-opacity:1;stroke:none;stroke-width:20.4885;stroke-linecap:square;stroke-linejoin:round;stroke-miterlimit:4;stroke-dasharray:none;stroke-opacity:0;paint-order:stroke fill markers"
       d="M 1234.5335,327.45601 C 1190.4737,292.92147 1071.9445,214.75762 1019.4046,185.58962 918.92817,129.80926 819.97236,89.845337 735.88745,71.089482 702.9113,63.733873 681.04634,61.656961 636.27027,61.627056 L 578.90257,61.588739 260.68006,181.44627 C 85.657677,247.36791 -59.444746,301.30379 -61.769775,301.30379 c -2.719143,0 -4.679685,-28.87317 -5.495258,-80.92944 -0.697364,-44.51119 -1.15673,-81.34797 -1.020813,-81.85951 0.135917,-0.51154 45.312983,-7.49564 100.393483,-15.52023 C 439.65701,63.619433 909.76638,-15.494616 1248.8754,-81.773525 l 112.6866,-22.024605 98.3446,19.786968 c 230.7394,46.424816 309.4912,71.5863 365.8917,116.903661 30.8278,24.769904 99.7856,39.780853 208.8573,45.46473 l 54.3419,2.831834 -2.1956,31.176767 c -1.2076,17.14723 -3.9912,69.7426 -6.1858,116.87861 -2.1946,47.13601 -4.8767,86.58838 -5.9603,87.67197 -2.758,2.75796 -208.975,-49.57046 -280.7872,-71.25092 -67.9824,-20.52425 -118.8137,-39.4934 -138.6025,-51.72356 -40.0554,-24.75562 -135.4881,10.37912 -316.7429,116.61282 -37.4623,21.95675 -69.7316,39.80044 -71.7096,39.65268 -1.978,-0.14793 -16.504,-10.38593 -32.2801,-22.75142 z"
       id="path1116" />
    <path
       style="fill:#5b6e5b;fill-opacity:1;stroke:none;stroke-width:20.4885;stroke-linecap:square;stroke-linejoin:round;stroke-miterlimit:4;stroke-dasharray:none;stroke-opacity:0;paint-order:stroke fill markers"
       d="m -72.655352,-86.300797 c -1.674112,-118.306393 -1.906428,-216.239943 -0.516257,-217.630113 3.760417,-3.76042 384.821789,43.4814 703.295339,87.19054 282.4651,38.76714 686.66207,101.67157 693.53487,107.93356 C 1334.6153,-98.823794 523.62239,41.413078 78.98399,106.42226 9.11832,116.63711 -52.897078,125.8513 -58.828005,126.89822 l -10.783505,1.90351 z"
       id="path1118" />
    <path
       style="fill:#637459;fill-opacity:0.90196079;stroke:none;stroke-width:20.4885;stroke-linecap:square;stroke-linejoin:round;stroke-miterlimit:4;stroke-dasharray:none;stroke-opacity:0;paint-order:stroke fill markers"
       d="m 2004.8998,67.481939 c -102.013,-7.119443 -149.7808,-20.970736 -190.8275,-55.334504 -9.9851,-8.3594867 -25.561,-18.383477 -34.613,-22.275527 -53.2802,-22.908753 -159.989,-51.296318 -292.9177,-77.924452 -46.2015,-9.255029 -86.7686,-17.895996 -90.1492,-19.202156 -3.3806,-1.30615 6.7612,-5.01546 22.5373,-8.24291 84.8069,-17.34964 283.5471,-62.54031 374.9389,-85.25576 96.239,-23.92019 273.1846,-73.15475 300.4303,-83.59377 l 11.5429,-4.42259 -2.503,42.0042 c -3.186,53.46696 -14.3955,292.39225 -14.4187,307.329846 -0.02,12.904742 0.8002,12.837204 -84.0203,6.917623 z"
       id="path1120" />
  </g>
</svg>
