<?xml version="1.0" encoding="UTF-8" standalone="no"?>
<svg
   xmlns:dc="http://purl.org/dc/elements/1.1/"
   xmlns:cc="http://creativecommons.org/ns#"
   xmlns:rdf="http://www.w3.org/1999/02/22-rdf-syntax-ns#"
   xmlns:svg="http://www.w3.org/2000/svg"
   xmlns="http://www.w3.org/2000/svg"
   xmlns:sodipodi="http://sodipodi.sourceforge.net/DTD/sodipodi-0.dtd"
   xmlns:inkscape="http://www.inkscape.org/namespaces/inkscape"
   width="1920px"
   height="1080px"
   viewBox="0 0 1920 1080"
   version="1.1"
   id="SVGRoot"
   sodipodi:docname="bckBlack.svg"
   inkscape:version="1.0.2-2 (e86c870879, 2021-01-15)">
  <defs
     id="defs5145" />
  <sodipodi:namedview
     id="base"
     pagecolor="#ffffff"
     bordercolor="#666666"
     borderopacity="1.0"
     inkscape:pageopacity="0.0"
     inkscape:pageshadow="2"
     inkscape:zoom="2.9778111"
     inkscape:cx="1933.343"
     inkscape:cy="486.34761"
     inkscape:document-units="px"
     inkscape:current-layer="layer1"
     inkscape:document-rotation="0"
     showgrid="false"
     inkscape:window-width="1920"
     inkscape:window-height="1001"
     inkscape:window-x="-9"
     inkscape:window-y="-9"
     inkscape:window-maximized="1" />
  <metadata
     id="metadata5148">
    <rdf:RDF>
      <cc:Work
         rdf:about="">
        <dc:format>image/svg+xml</dc:format>
        <dc:type
           rdf:resource="http://purl.org/dc/dcmitype/StillImage" />
        <dc:title></dc:title>
      </cc:Work>
    </rdf:RDF>
  </metadata>
  <g
     inkscape:label="Layer 1"
     inkscape:groupmode="layer"
     id="layer1">
    <path
       style="fill:none;stroke:none;stroke-width:1px;stroke-linecap:butt;stroke-linejoin:miter;stroke-opacity:1"
       d="m -945.39639,728.80403 c 0,0 2988.38919,269.27699 2581.54679,474.16167"
       id="path5158" />
    <path
       style="fill:none;stroke:none;stroke-width:1px;stroke-linecap:butt;stroke-linejoin:miter;stroke-opacity:1"
       d="m 2537.643,875.15022 c -49.7578,0 -2531.7891524,-377.57317 -2956.19311,-199.03082"
       id="path5162" />
    <path
       style="fill:none;stroke:none;stroke-width:1px;stroke-linecap:butt;stroke-linejoin:miter;stroke-opacity:1"
       d="m 3166.3484,284.64294 c 0,0 1530.7812,-222.446213 1416.6312,-529.77321"
       id="path5164" />
    <path
       style="fill:none;stroke:none;stroke-width:1.01078px;stroke-linecap:butt;stroke-linejoin:miter;stroke-opacity:1"
       d="m -234.0326,381.20316 c 0,0 2150.2662,178.52602 2198.1164,17.55993"
       id="path5166" />
    <path
       style="fill:none;stroke:#000000;stroke-width:0;stroke-linecap:butt;stroke-linejoin:miter;stroke-miterlimit:4;stroke-dasharray:none;stroke-opacity:1"
       d="m 4237.9443,-74.424733 c 0,0 -179.6198,-349.443057 -1337.8571,245.223223"
       id="path5168" />
    <path
       style="fill:none;stroke:none;stroke-width:0.633899px;stroke-linecap:butt;stroke-linejoin:miter;stroke-opacity:1"
       d="m 2521.6085,-30.554983 c 0,0 500.2055,60.83694 688.7445,3.57866 188.539,-57.25829 -1214.4412,9.84126 330.4241,-144.040387"
       id="path5170"
       sodipodi:nodetypes="csc" />
    <rect
       style="fill:none;stroke:#000000;stroke-width:0;stroke-linecap:square;stroke-linejoin:round;stroke-miterlimit:4;stroke-dasharray:none;paint-order:stroke fill markers"
       id="rect5172"
       width="1368.8705"
       height="775.72784"
       x="2544.3423"
       y="-174.50426" />
    <path
       style="fill:#abc837;stroke:#000000;stroke-width:0;stroke-linecap:square;stroke-linejoin:round;stroke-miterlimit:4;stroke-dasharray:none;stroke-opacity:0;paint-order:stroke fill markers"
       d="m 2554.4408,488.17034 v -103.2531 h 5.4164 c 6.6295,0 116.2883,12.0832 224.7657,24.7667 553.6206,64.7309 877.5847,125.0646 940.08,175.0765 l 8.1481,6.5207 -589.2051,0.071 -589.2051,0.071 z"
       id="path5735" />
    <path
       style="fill:#bcd35f;stroke:#000000;stroke-width:0;stroke-linecap:square;stroke-linejoin:round;stroke-miterlimit:4;stroke-dasharray:none;stroke-opacity:0;paint-order:stroke fill markers"
       d="m 3729.5672,584.98264 c -48.6006,-46.2908 -325.8,-101.5165 -812.7525,-161.9224 -96.3468,-11.9518 -245.1982,-29.2423 -322.866,-37.504 l -39.7217,-4.2253 -0.5371,-62.046 -0.537,-62.046 h 54.1914 c 115.0674,0 294.447,8.9336 496.8753,24.7458 40.3328,3.1506 80.6656,6.573 89.6285,7.6055 8.9628,1.0325 27.2959,2.6518 40.7402,3.5984 48.8517,3.44 225.6371,20.7087 360.5507,35.2192 82.3794,8.8603 287.5749,32.1227 300.9681,34.1199 l 7.6388,1.1391 v 114.4539 114.4537 h -83.104 -83.1041 z"
       id="path5737" />
    <path
       style="fill:#cdde87;stroke:#000000;stroke-width:0;stroke-linecap:square;stroke-linejoin:round;stroke-miterlimit:4;stroke-dasharray:none;stroke-opacity:0;paint-order:stroke fill markers"
       d="m 3849.7653,354.61914 c -167.7482,-20.2499 -572.1842,-62.5336 -606.3859,-63.3974 -2.5944,-0.065 24.2053,-4.6945 59.5549,-10.2866 224.9136,-35.58 426.5453,-77.5667 571.7842,-119.06518 l 29.0274,-8.29388 v 103.93156 c 0,57.1624 -0.2291,103.8356 -0.5092,103.7183 -0.2801,-0.1173 -24.3423,-3.0904 -53.4714,-6.6068 z"
       id="path5739" />
    <path
       style="fill:#87cdde;stroke:#000000;stroke-width:0;stroke-linecap:square;stroke-linejoin:round;stroke-miterlimit:4;stroke-dasharray:none;stroke-opacity:0;paint-order:stroke fill markers"
       d="m 3166.3484,284.64294 c -205.2274,-17.9574 -417.3043,-29.2986 -547.8768,-29.2986 h -65.2631 v -73.88747 c 0,-62.12058 0.4549,-73.88752 2.856,-73.88752 1.5708,0 27.9246,1.69894 58.564,3.77543 84.3269,5.71496 267.9216,16.55947 337.8339,19.95508 34.1708,1.65965 64.3776,3.45309 67.1261,3.9854 l 4.9972,0.96783 -6.0157,3.38038 c -3.3087,1.85922 -12.2724,6.56622 -19.9194,10.46002 -7.647,3.8938 -13.4356,7.51495 -12.8636,8.04699 0.5721,0.53204 11.647,-4.29485 24.611,-10.72642 l 23.5709,-11.69379 88.0876,3.87978 c 313.4113,13.80406 538.8172,15.42946 672.7093,4.85094 46.5424,-3.6772 91.3828,-10.16646 105.7965,-15.31075 2.6673,-0.9519 3.1836,0.69429 3.1836,10.14831 v 11.28451 l -34.7832,9.86768 c -148.9066,42.2434 -355.532,85.0153 -577.3154,119.5056 -33.5981,5.225 -64.306,9.4017 -68.2398,9.2817 -3.9338,-0.12 -29.6104,-2.1833 -57.0591,-4.5851 z"
       id="path5741" />
    <path
       style="fill:#87cdde;stroke:#000000;stroke-width:0;stroke-linecap:square;stroke-linejoin:round;stroke-miterlimit:4;stroke-dasharray:none;stroke-opacity:0;paint-order:stroke fill markers"
       d="m 2877.3996,1.8684866 c -88.0087,-2.35584003 -191.762,-9.05012 -303.5608,-19.5860796 l -24.8466,-2.34155 v -75.4065 -75.406517 l 482.1683,0.13777 482.1683,0.13777 -94.3451,9.86132 c -377.3394,39.441 -558.0794,62.724617 -613.6033,79.046737 -23.9531,7.04139 -23.1074,13.65466 2.2843,17.86296 28.1749,4.66955 67.3591,6.87432 216.6539,12.19043 110.5451,3.9363 158.5616,6.8896 187.1593,11.51136 12.5093,2.02166 22.1625,5.46727 22.148,7.90545 -0.032,5.41702 -38.8647,16.38323 -80.3929,22.7028096 -70.5959,10.74291 -160.7638,14.46428 -275.8334,11.38404 z"
       id="path5745" />
    <path
       id="path5747"
       style="fill:#ffeeaa;stroke:#000000;stroke-width:0;stroke-linecap:square;stroke-linejoin:round;stroke-miterlimit:4;stroke-dasharray:none;stroke-opacity:0;paint-order:stroke fill markers"
       d="m 3540.7764,-171.017 -53.3183,5.41016 c -423.3805,42.96029 -647.3975,71.754967 -689.6074,88.638667 -11.6816,4.67259 -8.6291,7.58572 11.7871,11.25 23.9998,4.30749 69.442,6.98332 190.9472,11.23828 139.8074,4.89586 196.1082,8.37795 218.9375,13.54493 25.0379,5.66688 21.914,12.93357 -9.373,21.80273 -39.9267,11.3182896 -99.5844,18.86618957 -177.1563,22.4140596 -66.8193,3.05609 -197.2287,0.36283 -298.8808,-6.17187 -61.4966,-6.40144 -123.8828,-6.6113 -185.0879,-15.6425796 l -83.1406,-5.36719 c 0,0 -41.832,-3.09199 -56.3477,-0.40039 -34.4613,6.39006 -193.2341,103.54467 141.4199,129.078133 0.2173,0.12301 0.4537,0.17382 0.7227,0.17382 1.4603,0 20.0962,1.20047 41.4121,2.66797 88.126,6.06717 253.2613,16.04176 375.084,22.65625 70.0719,3.80464 61.2515,4.57252 85.3301,-7.42773 30.4392,-15.17029 121.4058,-57.279363 155.2148,-71.849613 222.4599,-95.87094 401.4463,-142.2011 535.1016,-138.50977 65.1796,1.80016 118.5759,15.39782 153.1738,39.00391 4.4823,3.05817 8.9609,6.0165 9.9512,6.57617 1.4307,0.80857 1.7988,-12.34191 1.7988,-64.033197 V -171.017 h -183.9844 z"
       sodipodi:nodetypes="cssssssscccscsssssssssccc" />
    <path
       style="fill:#ffe680;stroke:#000000;stroke-width:0;stroke-linecap:square;stroke-linejoin:round;stroke-miterlimit:4;stroke-dasharray:none;stroke-opacity:0;paint-order:stroke fill markers"
       d="m 3455.025,148.34763 c -151.6309,-3.4394 -214.8142,-5.55409 -362.6398,-12.13738 -30.1338,-1.34197 -52.0496,-2.84994 -51.7938,-3.56378 1.0039,-2.80089 109.7419,-53.824233 171.729,-80.580713 269.3191,-116.25044 480.0665,-159.936957 614.5413,-127.3904 25.8492,6.25623 53.116,17.97731 71.0812,30.5555 l 10.0827,7.05928 v 81.04299 81.043033 l -7.9221,2.38287 c -28.9363,8.70358 -87.9799,15.46867 -172.8461,19.80429 -26.2281,1.33994 -232.2819,2.69048 -272.2324,1.78431 z"
       id="path5749" />
    <path
       style="fill:none;stroke:#000000;stroke-width:0;stroke-linecap:butt;stroke-linejoin:miter;stroke-miterlimit:4;stroke-dasharray:none;stroke-opacity:1"
       d="m 1956.3864,221.82922 c 0,0 -179.6198,-349.44306 -1337.8571,245.22322"
       id="path5168-8" />
    <path
       style="fill:none;stroke:none;stroke-width:0.898913px;stroke-linecap:butt;stroke-linejoin:miter;stroke-opacity:1"
       d="m -40.5684,199.85327 c 0,0 709.3262,86.27102 976.6876,5.07479 267.3614,-81.19625 -1722.1622,13.95558 468.5644,-204.25932765"
       id="path5170-9"
       sodipodi:nodetypes="csc" />
    <rect
       style="fill:none;stroke:#000000;stroke-width:0;stroke-linecap:square;stroke-linejoin:round;stroke-miterlimit:4;stroke-dasharray:none;paint-order:stroke fill markers"
       id="rect5172-2"
       width="1941.1537"
       height="1100.0361"
       x="-8.3305922"
       y="-4.2768645" />
    <path
       style="fill:#7c8754;fill-opacity:1;stroke:#000000;stroke-width:0;stroke-linecap:square;stroke-linejoin:round;stroke-miterlimit:4;stroke-dasharray:none;stroke-opacity:0;paint-order:stroke fill markers"
       d="M 0.05353625,935.44187 V 789.02181 H 7.7616227 c 9.4344963,0 165.4907273,17.13479 319.8657973,35.12086 787.86148,91.79301 1248.89718,177.35043 1337.83478,248.27083 l 11.5955,9.2467 -838.50213,0.1009 -838.50203375,0.101 z"
       id="path5735-9" />
    <path
       style="fill:#bcd35f;stroke:#000000;stroke-width:0;stroke-linecap:square;stroke-linejoin:round;stroke-miterlimit:4;stroke-dasharray:none;stroke-opacity:0;paint-order:stroke fill markers"
       d="M 1672.4011,1072.7285 C 1603.482,1007.0849 1210.394,928.77098 519.8615,843.11122 383.2349,826.16284 172.1533,801.64371 62.015,789.92797 l -56.3280994,-5.99177 -0.7617,-87.98556 -0.7616,-87.98556 H 81.0109 c 163.1735,0 417.5463,12.66851 704.6038,35.09134 57.1947,4.46766 114.3894,9.3209 127.0994,10.78502 12.7099,1.46415 38.7075,3.76045 57.7724,5.1029 69.2752,4.8781 319.9692,29.36629 511.286,49.94325 116.8197,12.56448 407.8013,45.55222 426.7938,48.38439 l 10.8323,1.61533 V 921.1909 1083.4943 H 1801.5513 1683.704 Z"
       id="path5737-0" />
    <path
       style="fill:#3b6744;fill-opacity:1;stroke:#000000;stroke-width:0;stroke-linecap:square;stroke-linejoin:round;stroke-miterlimit:4;stroke-dasharray:none;stroke-opacity:0;paint-order:stroke fill markers"
       d="m 1843.467,746.05702 c -238.0491,-28.71579 -811.9787,-88.67696 -860.51382,-89.90199 -3.68174,-0.0929 34.34932,-6.65712 84.51342,-14.58709 319.1719,-50.45493 605.3046,-109.99489 811.4113,-168.8427 l 41.1923,-11.7613 v 147.38222 c 0,81.06023 -0.325,147.24609 -0.7226,147.0797 -0.3975,-0.16628 -34.5437,-4.38239 -75.8806,-9.36884 z"
       id="path5739-1" />
    <path
       style="fill:#3b6958;fill-opacity:1;stroke:#000000;stroke-width:0;stroke-linecap:square;stroke-linejoin:round;stroke-miterlimit:4;stroke-dasharray:none;stroke-opacity:0;paint-order:stroke fill markers"
       d="M 872.60352,646.82589 C 580.51906,621.36099 278.68619,605.27848 92.852318,605.27848 H -0.03165368 V 500.50084 c 0,-88.09131 0.64724393,-104.77765 4.06461968,-104.77765 2.2355964,0 39.743026,2.40922 83.349744,5.35382 120.01603,8.10422 381.31229,23.48249 480.81323,28.29769 48.63271,2.35351 91.6236,4.89673 95.53537,5.65158 l 7.11216,1.37245 -8.56171,4.79362 c -4.70896,2.6365 -17.46636,9.31136 -28.34976,14.83303 -10.88332,5.52168 -19.12175,10.65673 -18.30761,11.41119 0.81415,0.75447 16.57624,-6.09039 35.02685,-15.21081 l 33.54669,-16.5826 125.3683,5.50179 c 446.05447,19.57513 766.85747,21.88006 957.41597,6.87897 66.2401,-5.21452 130.058,-14.41674 150.572,-21.7117 3.7961,-1.34987 4.5309,0.98454 4.5309,14.39101 v 16.00221 l -49.5043,13.99307 c -211.9274,59.90402 -506.0015,120.55762 -821.6489,169.46729 -47.8175,7.40937 -91.52181,13.33231 -97.12049,13.16206 -5.59867,-0.17022 -42.14221,-3.09611 -81.20789,-6.50197 z"
       id="path5741-1" />
    <path
       style="fill:#7d8596;stroke:#000000;stroke-width:0;stroke-linecap:square;stroke-linejoin:round;stroke-miterlimit:4;stroke-dasharray:none;stroke-opacity:0;paint-order:stroke fill markers;fill-opacity:1"
       d="M 463.968,245.832 C 339.1656,242.49126 192.0362,232.9983 33.4977,218.05758 L -1.7364996,214.7371 V 107.80542 0.87371235 L 682.0117,1.0690824 1365.76,1.2644524 1231.9721,15.248492 C 696.8785,71.178572 440.5766,104.19638 361.8398,127.34228 c -33.9672,9.98519 -32.7679,19.36327 3.2393,25.33092 39.954,6.62175 95.52,9.74827 307.2304,17.28689 156.7606,5.58195 224.8514,9.76993 265.4049,16.32391 17.739,2.86685 31.428,7.75296 31.4074,11.21047 -0.046,7.68172 -55.1128,23.23257 -114.0028,32.19417 C 755.0091,244.92283 627.1448,250.2 463.968,245.832 Z"
       id="path5745-8" />
    <path
       style="fill:#a1946b;stroke:#000000;stroke-width:0;stroke-linecap:square;stroke-linejoin:round;stroke-miterlimit:4;stroke-dasharray:none;stroke-opacity:0;paint-order:stroke fill markers;fill-opacity:1"
       d="M 592.6946,427.92272 C 419.9415,418.54291 185.766,404.39787 60.7971,395.79421 30.5697,393.71319 4.1440006,392.0105 2.0734004,392.0105 c -3.6037,0 -3.7649,-3.74896 -3.7649,-87.55398 v -87.55397 l 7.6596002,1.12973 C 28.667,221.38025 180.4704,233.92243 260.7779,239.08498 c 144.1499,9.26666 329.0776,13.08506 423.832,8.75131 110.0023,-5.03113 194.602,-15.73485 251.2208,-31.78497 44.3672,-12.57709 48.7967,-22.88087 13.2913,-30.91689 C 916.7484,177.80729 836.9089,172.86737 638.6523,165.9247 466.3495,159.89087 401.9109,156.09892 367.8775,149.9906 338.926,144.7944 334.596,140.6615 351.1614,134.03544 411.018,110.09319 728.6908,69.261532 1329.0738,8.3408421 l 75.6098,-7.67210975 h 260.9028 260.9024 V 92.917136 c 0,73.301854 -0.5243,91.952034 -2.5531,90.805434 -1.4043,-0.79366 -7.7536,-4.99122 -14.1097,-9.32792 -49.0623,-33.47508 -124.7814,-52.75538 -217.2106,-55.30812 -189.5326,-5.23457 -443.349,60.46511 -758.8127,196.41678 -47.9435,20.66164 -176.9391,80.37373 -220.1041,101.88626 -34.1451,17.01718 -21.6371,15.92839 -121.004,10.53315 z"
       id="path5747-2" />
    <path
       style="fill:#bfb48d;stroke:#000000;stroke-width:0;stroke-linecap:square;stroke-linejoin:round;stroke-miterlimit:4;stroke-dasharray:none;stroke-opacity:0;paint-order:stroke fill markers;fill-opacity:1"
       d="m 1283.0811,453.54963 c -215.0232,-4.8773 -304.6214,-7.87608 -514.2485,-17.21165 -42.7318,-1.903 -73.8099,-4.04141 -73.4471,-5.05368 1.4235,-3.97186 155.6216,-76.32651 243.5237,-114.26907 381.9132,-164.85122 680.7676,-226.801768 871.4622,-180.64846 36.656,8.87176 75.3222,25.49308 100.7982,43.32982 l 14.298,10.01055 v 114.92462 114.92465 l -11.2342,3.37908 c -41.0336,12.34228 -124.7616,21.93565 -245.1078,28.08387 -37.1932,1.90013 -329.3919,3.81529 -386.0445,2.53027 z"
       id="path5749-1" />
    <path
       style="fill:#abc837;stroke-width:0;stroke-linecap:square;stroke-linejoin:round;stroke-opacity:0;paint-order:stroke fill markers"
       d="m 1674.3976,1073.7482 c -22.8129,-20.9725 -66.2422,-39.896 -140.9597,-61.4206 C 1307.076,947.11753 797.0345,869.50248 79.4843,791.0737 40.2061,786.78055 7.6912006,782.91365 7.2291006,782.48055 c -0.4621,-0.43307 -1.0734,-39.78409 -1.3584,-87.4467 l -0.5183,-86.6593 104.7001994,1.05303 c 98.2453,0.98811 126.2384,1.75573 227.3661,6.23481 163.6008,7.2461 426.7112,25.02929 571.3203,38.61457 19.408,1.82329 54.1914,4.85086 77.2962,6.72793 175.5027,14.25807 703.7739,69.75576 907.3911,95.32624 l 23.525,2.95429 0.4285,161.73406 0.4285,161.73412 H 1801.0007 1684.193 Z"
       id="path1658" />
    <path
       style="fill:#5b6e5b;fill-opacity:1;stroke-width:0;stroke-linecap:square;stroke-linejoin:round;stroke-opacity:0;paint-order:stroke fill markers"
       d="m 1675.6328,1071.738 c -15.3633,-13.0694 -42.5909,-27.3641 -74.3733,-39.0465 C 1411.232,962.8426 891.01675,880.03047 89.779403,792.08173 47.028716,787.38915 9.5797053,783.11022 6.5593124,782.57297 l -5.4917335,-0.97679 -0.010055,-44.76246 c 0,-24.61935 -0.50460553,-63.47739 -1.11339027,-86.35121 l -1.10705503,-41.58876 15.8986934,0.0437 c 49.905465,0.13727 224.942648,3.45997 260.914348,4.95289 289.14137,12.00016 615.17577,36.43649 986.81108,73.96163 155.2032,15.67134 272.092,27.97793 408.0743,42.96395 106.3933,11.72515 237.8845,27.05635 245.4359,28.61658 l 4.6469,0.96009 0.017,116.231 c 0,63.92703 0.5063,136.45831 1.1109,161.18051 l 1.0993,44.9495 -117.2811,-0.1277 -117.2811,-0.1278 -12.6488,-10.7602 z"
       id="path1660" />
  </g>
</svg>
