<?xml version="1.0" encoding="UTF-8" standalone="no"?>
<svg
   xmlns:dc="http://purl.org/dc/elements/1.1/"
   xmlns:cc="http://creativecommons.org/ns#"
   xmlns:rdf="http://www.w3.org/1999/02/22-rdf-syntax-ns#"
   xmlns:svg="http://www.w3.org/2000/svg"
   xmlns="http://www.w3.org/2000/svg"
   xmlns:sodipodi="http://sodipodi.sourceforge.net/DTD/sodipodi-0.dtd"
   xmlns:inkscape="http://www.inkscape.org/namespaces/inkscape"
   width="16.0px"
   height="16.0px"
   viewBox="0 0 16.0 16.0"
   version="1.1"
   id="SVGRoot"
   sodipodi:docname="icon.svg"
   inkscape:version="1.0.2-2 (e86c870879, 2021-01-15)">
  <defs
     id="defs10">
    <inkscape:path-effect
       effect="bspline"
       id="path-effect928"
       is_visible="true"
       lpeversion="1"
       weight="33.333333"
       steps="2"
       helper_size="0"
       apply_no_weight="true"
       apply_with_weight="true"
       only_selected="false" />
    <inkscape:path-effect
       effect="bspline"
       id="path-effect924"
       is_visible="true"
       lpeversion="1"
       weight="33.333333"
       steps="2"
       helper_size="0"
       apply_no_weight="true"
       apply_with_weight="true"
       only_selected="false" />
    <inkscape:path-effect
       effect="bspline"
       id="path-effect904"
       is_visible="true"
       lpeversion="1"
       weight="33.333333"
       steps="2"
       helper_size="0"
       apply_no_weight="true"
       apply_with_weight="true"
       only_selected="false" />
    <inkscape:path-effect
       effect="bspline"
       id="path-effect892"
       is_visible="true"
       lpeversion="1"
       weight="33.333333"
       steps="2"
       helper_size="0"
       apply_no_weight="true"
       apply_with_weight="true"
       only_selected="false" />
    <inkscape:path-effect
       effect="bspline"
       id="path-effect888"
       is_visible="true"
       lpeversion="1"
       weight="33.333333"
       steps="2"
       helper_size="0"
       apply_no_weight="true"
       apply_with_weight="true"
       only_selected="false" />
    <inkscape:path-effect
       effect="bspline"
       id="path-effect884"
       is_visible="true"
       lpeversion="1"
       weight="33.333333"
       steps="2"
       helper_size="0"
       apply_no_weight="true"
       apply_with_weight="true"
       only_selected="false" />
    <inkscape:path-effect
       effect="bspline"
       id="path-effect880"
       is_visible="true"
       lpeversion="1"
       weight="33.333333"
       steps="2"
       helper_size="0"
       apply_no_weight="true"
       apply_with_weight="true"
       only_selected="false" />
    <inkscape:path-effect
       effect="bspline"
       id="path-effect49"
       is_visible="true"
       lpeversion="1"
       weight="33.333333"
       steps="2"
       helper_size="0"
       apply_no_weight="true"
       apply_with_weight="true"
       only_selected="false" />
    <inkscape:path-effect
       effect="bspline"
       id="path-effect47"
       is_visible="true"
       lpeversion="1"
       weight="33.333333"
       steps="2"
       helper_size="0"
       apply_no_weight="true"
       apply_with_weight="true"
       only_selected="false" />
    <inkscape:path-effect
       effect="bspline"
       id="path-effect859"
       is_visible="true"
       lpeversion="1"
       weight="33.333333"
       steps="2"
       helper_size="0"
       apply_no_weight="true"
       apply_with_weight="true"
       only_selected="false" />
    <inkscape:path-effect
       effect="bspline"
       id="path-effect32"
       is_visible="true"
       lpeversion="1"
       weight="33.333333"
       steps="2"
       helper_size="0"
       apply_no_weight="true"
       apply_with_weight="true"
       only_selected="false" />
    <inkscape:path-effect
       effect="bspline"
       id="path-effect28"
       is_visible="true"
       lpeversion="1"
       weight="33.333333"
       steps="2"
       helper_size="0"
       apply_no_weight="true"
       apply_with_weight="true"
       only_selected="false" />
  </defs>
  <sodipodi:namedview
     id="base"
     pagecolor="#ffffff"
     bordercolor="#666666"
     borderopacity="1.0"
     inkscape:pageopacity="0.0"
     inkscape:pageshadow="2"
     inkscape:zoom="9.7575555"
     inkscape:cx="17.441782"
     inkscape:cy="3.6559462"
     inkscape:document-units="px"
     inkscape:current-layer="layer1"
     inkscape:document-rotation="0"
     showgrid="true"
     inkscape:window-width="1920"
     inkscape:window-height="1001"
     inkscape:window-x="-9"
     inkscape:window-y="-9"
     inkscape:window-maximized="1">
    <inkscape:grid
       type="xygrid"
       id="grid19" />
  </sodipodi:namedview>
  <metadata
     id="metadata13">
    <rdf:RDF>
      <cc:Work
         rdf:about="">
        <dc:format>image/svg+xml</dc:format>
        <dc:type
           rdf:resource="http://purl.org/dc/dcmitype/StillImage" />
        <dc:title />
      </cc:Work>
    </rdf:RDF>
  </metadata>
  <g
     inkscape:label="Layer 1"
     inkscape:groupmode="layer"
     id="layer1">
    <path
       style="fill:none;stroke:#f9f9f9;stroke-width:0.09;stroke-linecap:butt;stroke-linejoin:miter;stroke-miterlimit:4;stroke-dasharray:none;stroke-opacity:1"
       d="M -8,0.99999999 C -8.1666666,1.5004999 -8.1666666,2.1671665 -8.4995066,2.4999999 c -0.33284,0.3328333 -0.999493,0.3328333 -1.3333267,0.5000033 -0.3338337,0.16717 -0.3338337,0.5004967 6.5e-6,0.6666633 0.3338402,0.1661667 1.0004932,0.1661667 0.9999043,1.6665673 -5.889e-4,1.5004005 -0.6672424,4.5003403 -0.3333132,5.9999702 0.3339291,1.499629 1.6672361,1.499629 2.3334026,1.166789 0.6661665,-0.33284 0.6661665,-0.999493 0.3330265,-1.166757 -0.33314,-0.167263 -0.9997932,0.166064 -1.3333266,-1.00003 -0.3335334,-1.166093 -0.3335334,-3.8327061 3.066e-4,-5.1665395 0.33384,-1.3338333 1.000493,-1.3338333 1.3333265,-1.5000033 0.3328335,-0.16617 0.3328335,-0.4994967 0.1666635,-0.6666634 C -6.4990066,2.8328332 -6.8323336,2.8328332 -6.9995001,2.3333232 -7.1666666,1.8338132 -7.1666666,0.83383322 -7.3333366,0.50000322 -7.5000066,0.16617323 -7.8333334,0.49950007 -8,0.99999999 Z"
       id="path857"
       inkscape:path-effect="#path-effect859"
       inkscape:original-d="m -8.1666666,0.83283322 c 10e-4,0.66766668 10e-4,1.33433328 0,1.99999998 -0.66568,10e-4 -1.332333,10e-4 -2.0000004,0 0.001,0.33434 0.001,0.6676667 0,1 0.6676804,10e-4 1.3343334,10e-4 2.0000004,0 -0.66568,3.00106 -1.332333,6.0009998 -2.0000004,8.9999998 1.3343604,10e-4 2.6676674,10e-4 4.0000004,0 0.001,-0.66568 0.001,-1.332333 0,-2 -0.66568,0.33434 -1.332333,0.667667 -2,1 10e-4,-2.66572 10e-4,-5.3323331 0,-7.9999998 0.66768,10e-4 1.334333,10e-4 2,0 0.001,-0.33234 0.001,-0.6656667 0,-1 -0.33234,10e-4 -0.665667,10e-4 -1,0 0.001,-0.99902 0.001,-1.99899998 0,-2.99999995 -0.33234,0.33433997 -0.665667,0.66766667 -1,0.99999997 z" />
    <path
       style="opacity:0.680782;fill:#000000;stroke:#ffffff;stroke-width:1;stroke-linecap:square;stroke-linejoin:round;stroke-miterlimit:4;stroke-dasharray:none;paint-order:stroke fill markers"
       d="m -19.057965,13.823774 c -0.04577,-0.01542 -0.137812,-0.07711 -0.204534,-0.1371 -0.360136,-0.323792 -0.642635,-1.076599 -0.885095,-2.358604 -0.396723,-2.09767 -0.740824,-6.15864 -0.743563,-8.7752944 -0.0014,-1.3222962 0.06003,-1.76285428 0.268604,-1.92692058 0.08492,-0.066795 0.142732,-0.065501 0.297251,0.00666 0.288092,0.1345331 0.702192,0.52025628 1.975842,1.84044228 1.598805,1.6572219 2.54954,2.4814481 3.251318,2.8186854 0.555132,0.266767 0.924812,0.2380604 1.224327,-0.095072 0.377333,-0.4196892 0.558334,-1.1595724 0.726683,-2.9704913 0.08807,-0.9474123 0.122194,-1.1803506 0.21506,-1.46822228 0.02722,-0.084375 0.07029,-0.1722372 0.09572,-0.1952501 0.04369,-0.039539 0.04916,-0.03773 0.09944,0.032875 0.352924,0.49563628 0.77728,3.49207058 0.993971,7.01855368 0.05384,0.8762298 0.06066,2.5064403 0.01182,2.8261673 -0.07508,0.491489 -0.197505,0.713044 -0.393744,0.71255 -0.129194,-3.25e-4 -0.330736,-0.09714 -0.55978,-0.268907 -0.263497,-0.197602 -0.891207,-0.833093 -1.562246,-1.581614 -1.457921,-1.6262556 -1.95163,-2.152148 -2.414397,-2.5717841 -0.803422,-0.7285409 -1.233689,-0.8761871 -1.44994,-0.4975462 -0.11054,0.1935478 -0.138545,0.3908533 -0.135685,0.9559581 0.0027,0.5394637 0.03124,0.8485849 0.186869,2.0258362 0.183529,1.388327 0.225459,1.791697 0.24057,2.314304 0.02326,0.804361 -0.04294,1.26138 -0.240785,1.66234 -0.219201,0.444242 -0.683193,0.738361 -0.997706,0.632434 z"
       id="path861" />
    <path
       style="opacity:0.680782;fill:#000000;stroke:#ffffff;stroke-width:1;stroke-linecap:square;stroke-linejoin:round;stroke-miterlimit:4;stroke-dasharray:none;paint-order:stroke fill markers"
       d="m -10.16667,12.832836 c -0.986333,-0.126771 -1.666135,-0.596723 -1.907146,-1.318425 -0.123124,-0.368702 -0.162772,-0.898416 -0.111648,-1.491872 0.05625,-0.653128 0.108115,-0.986059 0.37068,-2.3797105 0.257094,-1.3646489 0.300296,-1.7161387 0.273359,-2.2241054 -0.02374,-0.4476407 -0.09649,-0.6813383 -0.291138,-0.9352137 -0.207992,-0.2712798 -0.519311,-0.4240437 -1.202654,-0.5901404 -0.256545,-0.062358 -0.459846,-0.1712775 -0.498901,-0.2672919 -0.04359,-0.1071501 0.09029,-0.2380104 0.321706,-0.314478 0.111471,-0.036832 0.498944,-0.1129074 0.861056,-0.1690566 0.752306,-0.1166533 1.027955,-0.1888718 1.302748,-0.3413136 0.276886,-0.1536021 0.426948,-0.3595772 0.594463,-0.8159569 0.302489,-0.8240988 0.413973,-1.00980318 0.7273534,-1.21160678 0.39526,-0.2545286 0.535479,-0.08597 0.731373,0.87918788 0.120937,0.5958765 0.181397,0.7948337 0.301889,0.9935399 0.117437,0.1936695 0.288253,0.3295526 0.537676,0.4277184 0.117096,0.046084 0.291851,0.1144886 0.388355,0.1520114 0.304169,0.1182674 0.369163,0.3265584 0.155766,0.4991893 -0.09887,0.079974 -0.227643,0.1225771 -0.809777,0.2678909 -0.933266,0.2329641 -1.447641,0.7219329 -1.7476174,1.6613038 -0.239323,0.7494297 -0.32565,1.5338396 -0.295598,2.685871 0.04286,1.6430612 0.327236,2.5215412 0.9490154,2.9316942 0.290728,0.191776 0.572169,0.258115 1.311952,0.309245 0.423505,0.02927 0.623182,0.162442 0.619719,0.41331 -0.0061,0.447701 -0.855268,0.826477 -1.93172,0.861736 -0.240947,0.0079 -0.471209,-4.3e-4 -0.6509084,-0.02353 z"
       id="path863" />
    <path
       style="fill:none;stroke:none;stroke-width:0.09;stroke-linecap:butt;stroke-linejoin:miter;stroke-miterlimit:4;stroke-dasharray:none;stroke-opacity:1"
       d="m -39.666129,2.3338662 c -4.62e-4,2.3338664 0.332872,7.0005327 0.83334,9.3333328 C -38.33232,14 -37.665667,14 -37.166263,13.66686 c 0.499403,-0.33314 0.83273,-0.999793 0.666286,-2.832774 -0.166444,-1.8329814 -0.833098,-4.8329213 5.61e-4,-4.8329199 0.833658,1.5e-6 3.166944,2.9999417 4.49985,4.3327179 1.332906,1.332776 1.666233,0.999449 1.666279,-1.0000466 4.5e-5,-1.9994955 -0.333281,-5.6660889 -0.666167,-7.4999632 C -31.33234,-1e-7 -31.665667,-1e-7 -31.832833,1.3338599 -32,2.6677199 -32,5.3343332 -33.166225,5.3343375 -34.332451,5.3343418 -36.665738,2.6677284 -37.999039,1.3338641 -39.33234,-1e-7 -39.665667,-1e-7 -39.666129,2.3338662 Z"
       id="path30-3"
       inkscape:path-effect="#path-effect47"
       inkscape:original-d="m -40,-1e-7 c 0.334333,4.6676667 0.667667,9.334333 1,14.0000001 0.66768,10e-4 1.334333,10e-4 2,0 0.33434,-0.66568 0.667667,-1.332333 1,-2 -0.66568,-2.9990601 -1.332333,-5.9990001 -2,-9.0000001 2.33438,3.00106 4.667667,6.001 7,9.0000001 0.33434,-0.33234 0.667667,-0.665667 1,-1 C -30.33234,7.3342599 -30.665667,3.6676666 -31,-1e-7 c -0.33234,0.001 -0.665667,0.001 -1,0 0.001,2.66772 0.001,5.3343333 0,8 -2.33238,-2.66572 -4.665667,-5.3323333 -7,-8 -0.33234,0.001 -0.665667,0.001 -1,0 z" />
    <path
       style="fill:none;stroke:none;stroke-width:0.09;stroke-linecap:butt;stroke-linejoin:miter;stroke-miterlimit:4;stroke-dasharray:none;stroke-opacity:1"
       d="M -27.833333,1.1671667 C -28,1.6676666 -28,2.3343332 -28.33284,2.6671666 -28.66568,2.9999999 -29.332333,2.9999999 -29.666166,3.1671699 -30,3.3343399 -30,3.6676666 -29.66616,3.8338333 c 0.33384,0.1661666 1.000493,0.1661666 0.999904,1.6665672 -5.89e-4,1.5004006 -0.667242,4.5003405 -0.333313,5.9999705 C -28.66564,13 -27.332333,13 -26.666166,12.66716 -26,12.33432 -26,11.667667 -26.33314,11.500404 -26.66628,11.33314 -27.332933,11.666467 -27.666467,10.500373 -28,9.3342799 -28,6.6676666 -27.66616,5.3338333 -27.33232,3.9999999 -26.665667,3.9999999 -26.332833,3.8338299 -26,3.6676599 -26,3.3343332 -26.16617,3.1671666 -26.33234,2.9999999 -26.665667,2.9999999 -26.832833,2.5004899 -27,2.0009799 -27,1.0009999 -27.16667,0.6671699 c -0.16667,-0.33383 -0.499997,-5.0315e-4 -0.666663,0.4999968 z"
       id="path857-8"
       inkscape:path-effect="#path-effect49"
       inkscape:original-d="m -28,0.9999999 c 0.001,0.6676667 0.001,1.3343333 0,2 -0.66568,10e-4 -1.332333,10e-4 -2,0 0.001,0.33434 0.001,0.6676667 0,1 0.66768,10e-4 1.334333,10e-4 2,0 C -28.66568,7.0010599 -29.332333,10.001 -30,13 c 1.33436,10e-4 2.667667,10e-4 4,0 0.001,-0.66568 0.001,-1.332333 0,-2 -0.66568,0.33434 -1.332333,0.667667 -2,1 0.001,-2.6657201 0.001,-5.3323334 0,-8.0000001 0.66768,10e-4 1.334333,10e-4 2,0 0.001,-0.33234 0.001,-0.6656667 0,-1 -0.33234,10e-4 -0.665667,10e-4 -1,0 0.001,-0.99902 0.001,-1.999 0,-3 -0.33234,0.33434 -0.665667,0.6676667 -1,1 z" />
    <path
       style="opacity:0.680782;fill:#000000;stroke:none;stroke-width:0.00225093;stroke-linecap:square;stroke-linejoin:round;stroke-miterlimit:4;stroke-dasharray:none;paint-order:stroke fill markers"
       d="m -37.765155,13.73925 c -0.04577,-0.01542 -0.137811,-0.07711 -0.204534,-0.1371 -0.360135,-0.323792 -0.642635,-1.076599 -0.885095,-2.358604 -0.396723,-2.0976701 -0.740823,-6.1586408 -0.743563,-8.7752952 -0.0014,-1.3222962 0.06003,-1.7628543 0.268604,-1.9269206 0.08492,-0.0667954 0.142732,-0.0655008 0.297251,0.006656 0.288092,0.1345331 0.702193,0.5202563 1.975843,1.8404423 1.598805,1.6572219 2.549539,2.4814481 3.251317,2.8186854 0.555132,0.266767 0.924813,0.2380604 1.224327,-0.095072 0.377334,-0.4196857 0.558334,-1.1595689 0.726683,-2.9704878 0.08807,-0.9474123 0.122194,-1.1803506 0.21506,-1.4682223 0.02722,-0.084375 0.07029,-0.1722372 0.09572,-0.1952501 0.04369,-0.039539 0.04916,-0.03773 0.09944,0.032875 0.352924,0.4956363 0.777281,3.4920706 0.993972,7.0185537 0.05384,0.8762296 0.06066,2.5064411 0.01182,2.8261681 -0.07508,0.491489 -0.197505,0.713044 -0.393745,0.71255 -0.129194,-3.25e-4 -0.330736,-0.09714 -0.55978,-0.268907 -0.263496,-0.197602 -0.891206,-0.8330931 -1.562246,-1.5816141 -1.457921,-1.6262563 -1.95163,-2.1521487 -2.414397,-2.5717848 -0.803422,-0.7285409 -1.233689,-0.8761871 -1.44994,-0.4975462 -0.11054,0.1935478 -0.138545,0.3908533 -0.135685,0.9559581 0.0027,0.5394637 0.03124,0.8485849 0.18687,2.0258369 0.183528,1.3883271 0.225458,1.7916971 0.240569,2.3143041 0.02326,0.804361 -0.04294,1.26138 -0.240785,1.66234 -0.219201,0.444242 -0.683193,0.738361 -0.997706,0.632434 z"
       id="path861-1" />
    <path
       style="opacity:0.680782;fill:#000000;stroke-width:0.00225093;stroke-linecap:square;stroke-linejoin:round;stroke-miterlimit:4;stroke-dasharray:none;paint-order:stroke fill markers"
       d="m -27.77434,12.757034 c -0.608585,-0.126771 -1.028034,-0.596723 -1.176743,-1.318425 -0.07597,-0.368702 -0.100433,-0.898416 -0.06889,-1.4918721 0.03471,-0.653128 0.06671,-0.986059 0.228717,-2.3797107 0.158632,-1.3646489 0.185288,-1.7161387 0.168668,-2.2241054 -0.01465,-0.4476407 -0.05954,-0.6813383 -0.179637,-0.9352137 -0.128336,-0.2712798 -0.320425,-0.4240437 -0.742059,-0.5901404 -0.158293,-0.062358 -0.283733,-0.1712775 -0.307831,-0.2672919 -0.02689,-0.1071501 0.05571,-0.2380104 0.198499,-0.314478 0.06878,-0.036832 0.307857,-0.1129074 0.531286,-0.1690566 0.464187,-0.1166533 0.634267,-0.1888718 0.803819,-0.3413136 0.170843,-0.1536021 0.263434,-0.3595772 0.366794,-0.8159569 0.186641,-0.8240988 0.255428,-1.0098032 0.448789,-1.2116068 0.243882,-0.2545286 0.3304,-0.08597 0.45127,0.8791879 0.07462,0.5958765 0.111925,0.7948337 0.186271,0.9935399 0.07246,0.1936695 0.177857,0.3295526 0.331756,0.4277184 0.07225,0.046084 0.180077,0.1144886 0.239621,0.1520114 0.187678,0.1182674 0.22778,0.3265584 0.09611,0.4991893 -0.061,0.079974 -0.140459,0.1225771 -0.499646,0.2678909 -0.575842,0.2329641 -0.893219,0.7219329 -1.07831,1.6613038 -0.147666,0.7494297 -0.200932,1.5338396 -0.182389,2.685871 0.02645,1.6430614 0.20191,2.5215415 0.585559,2.9316945 0.179384,0.191776 0.353038,0.258115 0.809497,0.309245 0.26131,0.02927 0.384514,0.162442 0.382377,0.41331 -0.0038,0.447701 -0.527715,0.826477 -1.191904,0.861736 -0.148669,0.0079 -0.290745,-4.3e-4 -0.401622,-0.02353 z"
       id="path863-9" />
    <path
       style="fill:none;stroke:#000000;stroke-width:1px;stroke-linecap:butt;stroke-linejoin:miter;stroke-opacity:1"
       d="M 1,2 C 2.6678432,3.0007059 4.3345098,4.0007059 5.0005173,5.5007783 5.6665249,7.0008508 5.3331982,9.0008108 4.6665891,10.500415 3.99998,12.00002 3,13 4.00053,13.5 5.00106,14 8.001,14 10.00041,13.00018 11.99982,12.00036 12.9998,10.0004 13.4999,8.00068 14,6.00096 14,4.001 13.167227,2.8339454 12.334454,1.6668908 10.667821,1.3335642 8.8343904,1.1667821 7.00096,1 5.001,1 3.66736,1.16657 2.33372,1.33314 1.6670667,1.6664667 1,2"
       id="path878"
       inkscape:path-effect="#path-effect880"
       inkscape:original-d="m 1,2 c 1.6676667,1.001 3.3343333,2.001 5,3 -0.33234,2.00104 -0.6656667,4.001 -1,6 -0.99902,1.00102 -1.999,2.001 -3,3 3.00106,10e-4 6.001,10e-4 9,0 1.00102,-1.99904 2.001,-3.999 3,-6 C 14.001,6.00096 14.001,4.001 14,2 12.3343,1.66766 10.667667,1.3343333 9,1 7.00096,1.001 5.001,1.001 3,1 2.33432,1.33434 1.6676667,1.6676667 1,2" />
    <path
       style="fill:none;stroke:#000000;stroke-width:1px;stroke-linecap:butt;stroke-linejoin:miter;stroke-opacity:1"
       d="M 7,5 C 7.3343333,5 7.6676667,5 8,5"
       id="path882"
       inkscape:path-effect="#path-effect884"
       inkscape:original-d="M 7,5 C 7.3343333,5.001 7.6676667,5.001 8,5" />
    <path
       style="fill:none;stroke:#000000;stroke-width:1px;stroke-linecap:butt;stroke-linejoin:miter;stroke-opacity:1"
       d="m 10,5 c 0.334333,0 0.667667,0 1,0"
       id="path886"
       inkscape:path-effect="#path-effect888"
       inkscape:original-d="m 10,5 c 0.334333,0.001 0.667667,0.001 1,0" />
    <path
       style="fill:none;stroke:#000000;stroke-width:1px;stroke-linecap:butt;stroke-linejoin:miter;stroke-opacity:1"
       d="m 8,10 c 0.3343333,0 0.6676667,0 1,0"
       id="path890"
       inkscape:path-effect="#path-effect892"
       inkscape:original-d="m 8,10 c 0.3343333,10e-4 0.6676667,10e-4 1,0" />
    <path
       style="opacity:0.680782;fill:#ffffff;stroke:#ffffff;stroke-width:0.0256212;stroke-linecap:square;stroke-linejoin:round;stroke-miterlimit:4;stroke-dasharray:none;paint-order:stroke fill markers"
       d="M 5.4235751,13.294022 C 5.3813001,13.288165 5.237181,13.270687 5.1033104,13.255181 4.6586845,13.20368 4.1338165,13.03909 4.0954606,12.939136 4.0736545,12.88231 4.1448161,12.651284 4.2530885,12.427397 4.3082328,12.313369 4.4929208,11.961611 4.6635061,11.645712 4.8340916,11.329814 5.0481001,10.902418 5.1390804,10.695943 5.9688084,8.8129148 6.1036137,6.7632798 5.4911658,5.342694 5.0764538,4.3807612 4.2644453,3.5082332 2.9635517,2.6266953 2.7378703,2.4737646 2.4508166,2.2843433 2.3256546,2.2057593 L 2.0980872,2.0628791 2.1723185,2.0346293 C 2.4851601,1.9155729 3.02194,1.7837941 3.5147978,1.7050522 4.4301522,1.5588098 6.2316253,1.5142856 7.7294805,1.6008844 c 1.9811527,0.1145408 3.1631435,0.3275647 3.9797955,0.7172573 0.911168,0.4347944 1.345649,1.0437884 1.544469,2.1648213 0.05128,0.2891147 0.05891,0.4163215 0.05843,0.9731205 -5.97e-4,0.6831253 -0.02975,1.0050507 -0.150813,1.6653762 -0.373157,2.0353491 -1.186121,3.6904123 -2.293285,4.6687533 -0.9014884,0.796598 -2.0049853,1.23791 -3.6439657,1.457301 -0.2738033,0.03665 -1.6205776,0.07144 -1.8005332,0.04651 z M 9.0233496,10.003841 V 9.491418 H 8.5109262 7.9985028 v 0.512423 0.512424 H 8.5109262 9.0233496 Z M 8.0241239,5.007713 V 4.4952896 H 7.5117005 6.9992771 V 5.007713 5.5201365 h 0.5124234 0.5124234 z m 2.9976771,0 V 4.4952896 H 10.509378 9.9969541 V 5.007713 5.5201365 h 0.5124239 0.512423 z"
       id="path894" />
    <path
       style="opacity:0.680782;fill:#ffffff;stroke:#ffffff;stroke-width:0.0256212;stroke-linecap:square;stroke-linejoin:round;stroke-miterlimit:4;stroke-dasharray:none;paint-order:stroke fill markers"
       d="M 5.2045589,13.272328 C 4.7289972,13.211726 4.3998653,13.128911 4.2013508,13.019903 4.0851225,12.95608 4.0759765,12.934345 4.1070851,12.795891 4.1422973,12.639173 4.2641304,12.385882 4.6416917,11.684446 5.2137774,10.621621 5.442835,10.044809 5.6651804,9.1071004 5.816681,8.4681709 5.8565226,8.1109575 5.8566431,7.390482 5.8567712,6.6769252 5.8335361,6.4711667 5.6932361,5.9428858 5.4735684,5.115757 5.0735391,4.4581018 4.3607625,3.7522757 3.8913118,3.2874026 3.3305208,2.855919 2.4938117,2.3158068 2.0409684,2.0234875 2.0366622,2.0700184 2.5304131,1.9203108 3.3725697,1.664965 4.377062,1.5646625 6.0897255,1.5648996 c 1.9908924,2.756e-4 3.6427543,0.1514766 4.7142955,0.4315168 1.535116,0.4011924 2.19918,1.0749888 2.450156,2.4860626 0.05154,0.2897821 0.05919,0.4163313 0.05889,0.9736045 -4.13e-4,0.7399689 -0.03632,1.0895455 -0.190806,1.8577784 -0.30645,1.5238821 -0.835841,2.7906721 -1.555546,3.7222981 -0.977606,1.265467 -2.2577343,1.926571 -4.2599789,2.200006 -0.4871401,0.06652 -1.700153,0.08739 -2.1021722,0.03616 z M 9.0233496,10.003841 V 9.491418 H 8.5109262 7.9985028 v 0.512423 0.512424 H 8.5109262 9.0233496 Z M 8.0182603,5.0013078 8.0252072,4.4952896 H 7.5122421 6.9992771 v 0.5129651 0.512965 l 0.5060181,-0.00695 0.5060182,-0.00695 z m 3.0035407,0.00641 V 4.4952896 H 10.509378 9.9969541 V 5.007713 5.5201365 h 0.5124239 0.512423 z"
       id="path896" />
    <path
       style="opacity:0.680782;fill:#ffffff;stroke:#ffffff;stroke-width:0.0256212;stroke-linecap:square;stroke-linejoin:round;stroke-miterlimit:4;stroke-dasharray:none;paint-order:stroke fill markers"
       d="M 5.3723327,13.291459 C 5.1900506,13.27563 4.7451446,13.20379 4.5955722,13.166034 4.3860799,13.113151 4.1318499,13.002156 4.1049061,12.951811 4.0469999,12.843612 4.1650291,12.565497 4.6546619,11.656407 5.0236032,10.971402 5.2336297,10.508181 5.4103735,9.9896583 6.1110905,7.9339257 6.010005,6.0158777 5.1305252,4.6796793 4.5984444,3.8712863 3.7333942,3.0990726 2.4556493,2.2918689 2.2660479,2.1720899 2.115282,2.0668871 2.1206141,2.0580848 2.1371223,2.0308328 2.6192124,1.8847966 2.9140809,1.8177254 3.8474148,1.6054278 5.3158168,1.5149126 6.9317287,1.5700694 11.701802,1.7328891 13.062239,2.4334765 13.301445,4.8502953 13.431668,6.166008 13.077649,8.0849687 12.433848,9.553101 c -0.538518,1.228041 -1.308521,2.16958 -2.253764,2.755838 -0.8431195,0.522919 -2.0017273,0.862517 -3.3217233,0.973626 -0.2834929,0.02386 -1.247233,0.02963 -1.486028,0.0089 z M 9.0233496,10.003841 V 9.491418 H 8.5109262 7.9985028 v 0.512423 0.512424 H 8.5109262 9.0233496 Z M 8.0182603,5.0013078 8.0252072,4.4952896 H 7.5122421 6.9992771 v 0.5129651 0.512965 l 0.5060181,-0.00695 0.5060182,-0.00695 z m 3.0035407,0.00641 V 4.4952896 H 10.509378 9.9969541 V 5.007713 5.5201365 h 0.5124239 0.512423 z"
       id="path898" />
    <path
       style="fill:none;stroke:#000000;stroke-width:1px;stroke-linecap:butt;stroke-linejoin:miter;stroke-opacity:1"
       d="m 50.897801,12.393131 c -0.334333,0 -0.667667,0 -1.500852,-1.167282 C 48.563764,10.058566 47.230457,7.7252799 47.897136,6.2259539 48.563815,4.7266279 51.230428,4.0599746 50.563486,3.226396 49.896545,2.3928173 45.896625,1.3928373 43.417142,2.8132668 40.93766,4.2336963 39.897977,8.3924255 40.848216,10.553926 c 0.950239,2.1615 4.048487,2.50575 2.381741,2.172378 -1.666746,-0.333371 -7.999953,-1.333351 -9.832667,-3.3333231 -1.832714,-1.9999717 0.833899,-4.9999115 3.654302,-5.6737157 2.820402,-0.6738042 5.84502,1.0065391 8.511905,3.5063321 2.666885,2.4997931 5.000172,5.8330597 6.000527,5.3330517 1.000355,-0.500009 0.667028,-4.8332549 -1.499938,-6.3326063 -2.166965,-1.4993513 -6.166885,-0.1660446 -9.49998,1.667243 -3.333096,1.8332876 -5.999709,4.1665743 -4.333386,4.9999183 1.666323,0.833345 7.666203,0.166691 10.956768,-0.166691 3.290565,-0.333382 4.042646,-0.333382 4.710313,-0.333382"
       id="path902"
       inkscape:path-effect="#path-effect904"
       inkscape:original-d="m 50.897801,12.393131 c -0.334333,-0.001 -0.667667,-0.001 -1,0 -1.33436,-2.33438 -2.667667,-4.6676663 -4,-6.9999996 2.66572,-0.66768 5.332333,-1.334333 8,-2 -4.00108,-1.00102 -8.001,-2.001 -12,-3.00000004 -0.835417,3.87174604 -2.001,7.99900004 -3,11.99999964 2.914664,0.196208 5.999,0.665667 9,1 -6.33446,-1.00102 -12.667667,-2.001 -19,-3 2.66572,-3.0010596 5.332333,-6.0009996 8,-8.9999996 3.017667,1.574077 5.999,3.332333 9,5 2.33238,3.3324 4.665667,6.6656666 7,9.9999996 -0.33434,-4.33442 -0.667667,-8.6676663 -1,-12.9999996 -4.00108,1.33236 -8.001,2.6656667 -12,4 -2.66772,2.33238 -5.334333,4.6656666 -8,6.9999996 5.99912,-0.66768 11.999,-1.334333 18,-2 0.580252,-0.07709 1.332333,-0.001 2,0" />
    <path
       style="opacity:0.680782;fill:#d35f5f;stroke:#ffffff;stroke-width:0.0512423;stroke-linecap:square;stroke-linejoin:round;stroke-miterlimit:4;stroke-dasharray:none;paint-order:stroke fill markers"
       d="m 44.570161,7.0524345 c 0.700505,0.6109581 1.346074,1.2426713 2.183566,2.1367012 1.909823,2.0387503 2.43946,2.6151023 2.490109,2.7097413 0.04885,0.09128 0.02776,0.1007 -0.292308,0.13063 -0.189725,0.01774 -1.267317,0.122573 -2.394649,0.232958 -2.543234,0.249026 -2.408525,0.239881 -2.493588,0.169285 C 44.024221,12.39932 43.87752,12.3348 43.737294,12.288354 42.693845,11.942785 41.787348,11.226604 41.403553,10.444573 41.152282,9.9325753 41.048327,9.4371602 41.048327,8.7516714 V 8.2184224 L 41.881015,7.811243 c 0.800182,-0.391284 1.398133,-0.6532277 2.0694,-0.9065396 l 0.314351,-0.1186245 z"
       id="path906" />
    <path
       style="opacity:0.680782;fill:#d35f5f;stroke:#ffffff;stroke-width:0.0512423;stroke-linecap:square;stroke-linejoin:round;stroke-miterlimit:4;stroke-dasharray:none;paint-order:stroke fill markers"
       d="m 39.152361,4.1490444 c 0.456886,0.08839 1.009867,0.238046 1.394834,0.377494 l 0.446851,0.161864 -0.181795,0.360996 c -0.23889,0.4743728 -0.554963,1.4306624 -0.673206,2.0368047 l -0.09457,0.4848056 -0.30514,0.1765887 C 38.609806,8.4012725 37.312439,9.3183217 36.54967,10.002226 l -0.449374,0.402912 -0.501498,-0.222255 C 34.507224,9.699117 33.72831,9.1028142 33.464043,8.5486064 33.297882,8.2001432 33.296995,7.6041687 33.462043,7.1751236 33.82281,6.237042 34.917308,5.1786414 36.099508,4.6246434 c 0.780434,-0.365724 1.23338,-0.468967 2.130538,-0.48563 0.43684,-0.0081 0.851903,-0.0036 0.922362,0.01003 z"
       id="path908" />
    <path
       style="opacity:0.680782;fill:#d35f5f;stroke:#ffffff;stroke-width:0.0512423;stroke-linecap:square;stroke-linejoin:round;stroke-miterlimit:4;stroke-dasharray:none;paint-order:stroke fill markers"
       d="m 39.996003,9.2245018 c 0.101221,0.9714182 0.361661,1.7049742 0.811514,2.2857132 0.08287,0.106987 0.140915,0.204287 0.12898,0.216222 -0.03533,0.03533 -1.946644,-0.417671 -2.85603,-0.676916 l -0.841304,-0.239837 0.226395,-0.198073 c 0.51046,-0.446599 2.154036,-1.6055719 2.423613,-1.7090184 0.0536,-0.020569 0.07917,0.056486 0.106832,0.3219092 z"
       id="path910" />
    <path
       style="opacity:0.680782;fill:#d35f5f;stroke:#ffffff;stroke-width:0.0512423;stroke-linecap:square;stroke-linejoin:round;stroke-miterlimit:4;stroke-dasharray:none;paint-order:stroke fill markers"
       d="m 42.436862,5.4638581 c 0.661405,0.4172491 0.813563,0.5202103 0.814252,0.550983 3.49e-4,0.015593 -0.189603,0.1055447 -0.422115,0.1998916 -0.232512,0.094347 -0.682164,0.293286 -0.999226,0.4420869 -0.317062,0.1488009 -0.576476,0.2618067 -0.576476,0.2511241 0,-0.010683 0.0604,-0.2106299 0.134227,-0.4443272 0.157828,-0.4996138 0.505071,-1.2713831 0.572036,-1.2713831 0.0257,0 0.240489,0.122231 0.477302,0.2716247 z"
       id="path912" />
    <path
       style="opacity:0.680782;fill:#d35f5f;stroke:#ffffff;stroke-width:0.0512423;stroke-linecap:square;stroke-linejoin:round;stroke-miterlimit:4;stroke-dasharray:none;paint-order:stroke fill markers"
       d="m 47.665723,2.7080714 c 0.839004,0.114478 1.997963,0.472597 2.320262,0.716963 0.09698,0.07353 0.09698,0.07611 0,0.184111 -0.05409,0.06025 -0.375062,0.302143 -0.713262,0.537548 -0.338199,0.235405 -0.734885,0.533206 -0.881523,0.661779 l -0.266615,0.233769 -0.638079,0.02009 c -0.737385,0.02322 -1.709032,0.175688 -2.456072,0.3854047 C 44.743762,5.5282141 44.484485,5.5785897 44.454262,5.559683 44.424042,5.540776 44.169934,5.3603964 43.889583,5.1588384 43.609232,4.9572804 43.185024,4.6743294 42.9469,4.5300594 l -0.432955,-0.262309 0.381712,-0.373767 c 0.46315,-0.45351 0.943602,-0.745583 1.570356,-0.954638 0.891571,-0.297385 2.083687,-0.383551 3.19971,-0.231275 z"
       id="path914" />
    <path
       style="opacity:0.680782;fill:#d35f5f;stroke:#ffffff;stroke-width:0.0512423;stroke-linecap:square;stroke-linejoin:round;stroke-miterlimit:4;stroke-dasharray:none;paint-order:stroke fill markers"
       d="m 48.831434,6.2468352 c 1.230214,0.3308447 2.096561,1.3959235 2.550823,3.135959 0.152986,0.586005 0.224973,1.8797968 0.125048,2.2474088 -0.05454,0.200634 -0.07018,0.213908 -0.291218,0.247054 -0.278681,0.04179 -0.317141,0.02033 -0.912002,-0.508927 -0.502908,-0.447444 -0.88459,-0.991402 -1.367288,-1.9486038 -0.691451,-1.371164 -0.85793,-2.3660811 -0.510026,-3.0480303 0.05776,-0.113222 0.110317,-0.2043406 0.11679,-0.2024862 0.0065,0.00186 0.136016,0.036786 0.287873,0.077625 z"
       id="path916" />
    <path
       style="opacity:0.680782;fill:#d35f5f;stroke:#ffffff;stroke-width:0.0512423;stroke-linecap:square;stroke-linejoin:round;stroke-miterlimit:4;stroke-dasharray:none;paint-order:stroke fill markers"
       d="m 47.351135,6.130877 c 0,0.014676 -0.03757,0.1726646 -0.0835,0.3510864 -0.06432,0.2499022 -0.07606,0.4479685 -0.05111,0.862448 0.01782,0.2959245 0.04745,0.6072217 0.06586,0.6917716 0.02799,0.1285556 -0.112572,0.011643 -0.858445,-0.7140086 -0.490554,-0.4772545 -0.891917,-0.880788 -0.891917,-0.8967409 0,-0.015953 0.245903,-0.078349 0.54645,-0.1386577 0.576192,-0.1156203 1.272653,-0.2009362 1.272653,-0.1558988 z"
       id="path918" />
    <path
       style="opacity:0.680782;fill:#d35f5f;stroke:#ffffff;stroke-width:0.0512423;stroke-linecap:square;stroke-linejoin:round;stroke-miterlimit:4;stroke-dasharray:none;paint-order:stroke fill markers"
       d="m 36.795213,11.763367 c 0.598478,0.203586 1.553633,0.467385 2.553693,0.70529 0.573124,0.136341 1.055443,0.261292 1.071819,0.277668 0.05004,0.05004 -1.673617,0.03311 -2.367819,-0.02326 -1.044273,-0.0848 -1.704064,-0.264586 -1.78967,-0.487674 -0.03274,-0.08531 0.125173,-0.503285 0.205906,-0.545022 0.02433,-0.01258 0.171063,0.02027 0.326071,0.073 z"
       id="path920" />
    <path
       style="fill:none;stroke:#000000;stroke-width:1px;stroke-linecap:butt;stroke-linejoin:miter;stroke-opacity:1"
       d="m 49,7 c 0,0.3343333 0,0.6676667 0,0.6676633 0,-3.3e-6 0,-0.33333 0,-0.3333267 C 49,7.33434 49,7.6676667 49,8"
       id="path922"
       inkscape:path-effect="#path-effect924"
       inkscape:original-d="m 49,7 c 10e-4,0.3343333 10e-4,0.6676667 0,1 10e-4,-0.33234 10e-4,-0.6656667 0,-1 10e-4,0.33434 10e-4,0.6676667 0,1" />
    <path
       style="fill:none;stroke:#000000;stroke-width:1px;stroke-linecap:butt;stroke-linejoin:miter;stroke-opacity:1"
       d="m 51,10 c -0.332333,0 -0.665667,0 -1,0"
       id="path926"
       inkscape:path-effect="#path-effect928"
       inkscape:original-d="m 51,10 c -0.332333,10e-4 -0.665667,10e-4 -1,0" />
  </g>
</svg>
